# Blender 3.6.1
# www.blender.org
mtllib arrow.mtl
o BezierCurve
v -1.489242 0.180830 0.180000
v -1.526284 0.222324 0.171190
v -1.559701 0.259756 0.145623
v -1.586221 0.289463 0.105801
v -1.603248 0.308535 0.055623
v -1.609115 0.315107 -0.000000
v 1.000000 0.165484 0.180000
v 1.039331 0.204815 0.171190
v 1.074813 0.240296 0.145623
v 1.102971 0.268455 0.105801
v 1.121050 0.286533 0.055623
v 1.127279 0.292763 0.000000
v 1.000000 0.165484 0.180000
v 1.039331 0.204815 0.171190
v 1.074813 0.240296 0.145623
v 1.102971 0.268455 0.105801
v 1.121050 0.286533 0.055623
v 1.127279 0.292763 0.000000
v 0.962040 0.203194 0.180000
v 1.001080 0.242815 0.171190
v 1.036299 0.278558 0.145623
v 1.064248 0.306924 0.105801
v 1.082193 0.325136 0.055623
v 1.088376 0.331411 0.000000
v 0.923143 0.241208 0.180000
v 0.961812 0.281192 0.171190
v 0.996695 0.317263 0.145623
v 1.024379 0.345888 0.105801
v 1.042153 0.364267 0.055623
v 1.048277 0.370600 0.000000
v 0.883286 0.279350 0.180000
v 0.921486 0.319783 0.171190
v 0.955947 0.356258 0.145623
v 0.983295 0.385204 0.105801
v 1.000854 0.403789 0.055623
v 1.006904 0.410193 0.000000
v 0.842443 0.317446 0.180000
v 0.880077 0.358408 0.171190
v 0.914026 0.395359 0.145623
v 0.940969 0.424684 0.105801
v 0.958267 0.443512 0.055623
v 0.964228 0.450000 0.000000
v 0.800591 0.355321 0.180000
v 0.837556 0.396887 0.171190
v 0.870903 0.434384 0.145623
v 0.897367 0.464142 0.105801
v 0.914358 0.483248 0.055623
v 0.920213 0.489832 0.000000
v 0.757705 0.392799 0.180000
v 0.793896 0.435042 0.171190
v 0.826544 0.473149 0.145623
v 0.852453 0.503392 0.105801
v 0.869088 0.522809 0.055623
v 0.874820 0.529500 0.000000
v 0.713761 0.429705 0.180000
v 0.749066 0.472692 0.171190
v 0.780915 0.511471 0.145623
v 0.806190 0.542246 0.105801
v 0.822418 0.562005 0.055623
v 0.828009 0.568814 0.000000
v 0.668735 0.465864 0.180000
v 0.703036 0.509657 0.171190
v 0.733979 0.549163 0.145623
v 0.758536 0.580516 0.105801
v 0.774302 0.600645 0.055623
v 0.779735 0.607581 0.000000
v 0.622601 0.501101 0.180000
v 0.655774 0.545756 0.171190
v 0.685699 0.586040 0.145623
v 0.709448 0.618009 0.105801
v 0.724696 0.638535 0.055623
v 0.729950 0.645608 0.000000
v 0.575337 0.535241 0.180000
v 0.607248 0.580807 0.171190
v 0.636036 0.621912 0.145623
v 0.658883 0.654534 0.105801
v 0.673551 0.675478 0.055623
v 0.678605 0.682695 0.000000
v 0.526917 0.568109 0.180000
v 0.557428 0.614626 0.171190
v 0.584952 0.656589 0.145623
v 0.606795 0.689891 0.105801
v 0.620820 0.711273 0.055623
v 0.625652 0.718640 0.000000
v 0.477317 0.599530 0.180000
v 0.506280 0.647028 0.171190
v 0.532407 0.689876 0.145623
v 0.553142 0.723880 0.105801
v 0.566454 0.745712 0.055623
v 0.571042 0.753235 0.000000
v 0.426513 0.629329 0.180000
v 0.453773 0.677825 0.171190
v 0.478364 0.721574 0.145623
v 0.497879 0.756294 0.105801
v 0.510409 0.778585 0.055623
v 0.514727 0.786266 0.000000
v 0.374481 0.657329 0.180000
v 0.399877 0.706829 0.171190
v 0.422787 0.751482 0.145623
v 0.440969 0.786920 0.105801
v 0.452642 0.809672 0.055623
v 0.456664 0.817512 0.000000
v 0.321196 0.683358 0.180000
v 0.344564 0.733848 0.171190
v 0.365645 0.779395 0.145623
v 0.382375 0.815542 0.105801
v 0.393116 0.838749 0.055623
v 0.396817 0.846746 0.000000
v 0.266634 0.707239 0.180000
v 0.287809 0.758688 0.171190
v 0.306910 0.805102 0.145623
v 0.322070 0.841936 0.105801
v 0.331802 0.865585 0.055623
v 0.335156 0.873734 0.000000
v 0.210770 0.728797 0.180000
v 0.229587 0.781156 0.171190
v 0.246562 0.828391 0.145623
v 0.260033 0.865876 0.105801
v 0.268682 0.889943 0.055623
v 0.271662 0.898236 0.000000
v 0.153581 0.747857 0.180000
v 0.169882 0.801055 0.171190
v 0.184586 0.849046 0.145623
v 0.196256 0.887132 0.105801
v 0.203749 0.911584 0.055623
v 0.206331 0.920010 0.000000
v 0.095042 0.764244 0.180000
v 0.108678 0.818188 0.171190
v 0.120979 0.866852 0.145623
v 0.130742 0.905472 0.105801
v 0.137010 0.930267 0.055623
v 0.139169 0.938811 0.000000
v 0.035128 0.777783 0.180000
v 0.045967 0.832359 0.171190
v 0.055745 0.881593 0.145623
v 0.063505 0.920666 0.105801
v 0.068487 0.945752 0.055623
v 0.070204 0.954396 0.000000
v -0.026185 0.788299 0.180000
v -0.018255 0.843375 0.171190
v -0.011102 0.893059 0.145623
v -0.005425 0.932488 0.105801
v -0.001780 0.957804 0.055623
v -0.000524 0.966527 -0.000000
v -0.088920 0.795617 0.180000
v -0.083988 0.851042 0.171190
v -0.079539 0.901042 0.145623
v -0.076008 0.940721 0.105801
v -0.073741 0.966197 0.055623
v -0.072960 0.974976 -0.000000
v -0.153103 0.799562 0.180000
v -0.151228 0.855174 0.171190
v -0.149536 0.905343 0.145623
v -0.148194 0.945158 0.105801
v -0.147332 0.970720 0.055623
v -0.147035 0.979528 -0.000000
v -0.218758 0.799958 0.180000
v -0.219968 0.855589 0.171190
v -0.221059 0.905775 0.145623
v -0.221925 0.945603 0.105801
v -0.222481 0.971174 0.055623
v -0.222672 0.979985 -0.000000
v -0.285909 0.796630 0.180000
v -0.290199 0.852109 0.171190
v -0.294069 0.902157 0.145623
v -0.297141 0.941876 0.105801
v -0.299112 0.967376 0.055623
v -0.299792 0.976163 -0.000000
v -0.354580 0.789404 0.180000
v -0.361915 0.844563 0.171190
v -0.368532 0.894322 0.145623
v -0.373783 0.933811 0.105801
v -0.377154 0.959164 0.055623
v -0.378316 0.967900 -0.000000
v -0.424796 0.778104 0.180000
v -0.435110 0.832783 0.171190
v -0.444414 0.882110 0.145623
v -0.451798 0.921256 0.105801
v -0.456538 0.946389 0.055623
v -0.458172 0.955049 -0.000000
v -0.496581 0.762556 0.180000
v -0.509781 0.816610 0.171190
v -0.521690 0.865372 0.145623
v -0.531141 0.904070 0.105801
v -0.537208 0.928916 0.055623
v -0.539299 0.937477 -0.000000
v -0.569959 0.742583 0.180000
v -0.585933 0.795882 0.171190
v -0.600343 0.843964 0.145623
v -0.611779 0.882122 0.105801
v -0.619121 0.906620 0.055623
v -0.621651 0.915062 -0.000000
v -0.644955 0.718012 0.180000
v -0.663571 0.770445 0.171190
v -0.680364 0.817746 0.145623
v -0.693691 0.855284 0.105801
v -0.702248 0.879385 0.055623
v -0.705196 0.887690 -0.000000
v -0.721593 0.688666 0.180000
v -0.742707 0.740143 0.171190
v -0.761755 0.786580 0.145623
v -0.776871 0.823434 0.105801
v -0.786576 0.847095 0.055623
v -0.789920 0.855248 -0.000000
v -0.799898 0.654372 0.180000
v -0.823360 0.704820 0.171190
v -0.844526 0.750329 0.145623
v -0.861323 0.786446 0.105801
v -0.872108 0.809635 0.055623
v -0.875824 0.817625 -0.000000
v -0.879893 0.614952 0.180000
v -0.905550 0.664319 0.171190
v -0.928695 0.708853 0.145623
v -0.947063 0.744196 0.105801
v -0.958857 0.766887 0.055623
v -0.962920 0.774706 -0.000000
v -0.961603 0.570234 0.180000
v -0.989301 0.618483 0.171190
v -1.014288 0.662010 0.145623
v -1.034118 0.696553 0.105801
v -1.046849 0.718731 0.055623
v -1.051236 0.726373 -0.000000
v -1.045052 0.520041 0.180000
v -1.074642 0.567153 0.171190
v -1.101335 0.609653 0.145623
v -1.122519 0.643381 0.105801
v -1.136120 0.665036 0.055623
v -1.140807 0.672498 -0.000000
v -1.130265 0.464198 0.180000
v -1.161603 0.510165 0.171190
v -1.189872 0.551632 0.145623
v -1.212307 0.584541 0.105801
v -1.226711 0.605669 0.055623
v -1.231675 0.612950 -0.000000
v -1.217267 0.402531 0.180000
v -1.250214 0.447356 0.171190
v -1.279936 0.487794 0.145623
v -1.303524 0.519885 0.105801
v -1.318668 0.540489 0.055623
v -1.323887 0.547589 -0.000000
v -1.306080 0.334864 0.180000
v -1.340509 0.378561 0.171190
v -1.371567 0.417980 0.145623
v -1.396216 0.449263 0.105801
v -1.412041 0.469349 0.055623
v -1.417494 0.476269 -0.000000
v -1.396730 0.261022 0.180000
v -1.432520 0.303610 0.171190
v -1.464806 0.342029 0.145623
v -1.490429 0.372519 0.105801
v -1.506880 0.392095 0.055623
v -1.512548 0.398840 -0.000000
v -1.489242 0.180830 0.180000
v -1.526284 0.222324 0.171190
v -1.559701 0.259756 0.145623
v -1.586221 0.289463 0.105801
v -1.603248 0.308535 0.055623
v -1.609115 0.315107 -0.000000
v -1.489242 0.180830 -0.180000
v -1.526284 0.222324 -0.171190
v -1.559701 0.259756 -0.145623
v -1.586221 0.289463 -0.105801
v -1.603248 0.308535 -0.055623
v 1.000000 0.165484 -0.180000
v 1.039331 0.204815 -0.171190
v 1.074813 0.240296 -0.145623
v 1.102971 0.268455 -0.105801
v 1.121050 0.286533 -0.055623
v 1.000000 0.165484 -0.180000
v 1.039331 0.204815 -0.171190
v 1.074813 0.240296 -0.145623
v 1.102971 0.268455 -0.105801
v 1.121050 0.286533 -0.055623
v 0.962040 0.203194 -0.180000
v 1.001080 0.242815 -0.171190
v 1.036299 0.278558 -0.145623
v 1.064248 0.306924 -0.105801
v 1.082193 0.325136 -0.055623
v 0.923143 0.241208 -0.180000
v 0.961812 0.281192 -0.171190
v 0.996695 0.317263 -0.145623
v 1.024379 0.345888 -0.105801
v 1.042153 0.364267 -0.055623
v 0.883286 0.279350 -0.180000
v 0.921486 0.319783 -0.171190
v 0.955947 0.356258 -0.145623
v 0.983295 0.385204 -0.105801
v 1.000854 0.403789 -0.055623
v 0.842443 0.317446 -0.180000
v 0.880077 0.358408 -0.171190
v 0.914026 0.395359 -0.145623
v 0.940969 0.424684 -0.105801
v 0.958267 0.443512 -0.055623
v 0.800591 0.355321 -0.180000
v 0.837556 0.396887 -0.171190
v 0.870903 0.434384 -0.145623
v 0.897367 0.464142 -0.105801
v 0.914358 0.483248 -0.055623
v 0.757705 0.392799 -0.180000
v 0.793896 0.435042 -0.171190
v 0.826544 0.473149 -0.145623
v 0.852453 0.503392 -0.105801
v 0.869088 0.522809 -0.055623
v 0.713761 0.429705 -0.180000
v 0.749066 0.472692 -0.171190
v 0.780915 0.511471 -0.145623
v 0.806190 0.542246 -0.105801
v 0.822418 0.562005 -0.055623
v 0.668735 0.465864 -0.180000
v 0.703036 0.509657 -0.171190
v 0.733979 0.549163 -0.145623
v 0.758536 0.580516 -0.105801
v 0.774302 0.600645 -0.055623
v 0.622601 0.501101 -0.180000
v 0.655774 0.545756 -0.171190
v 0.685699 0.586040 -0.145623
v 0.709448 0.618009 -0.105801
v 0.724696 0.638535 -0.055623
v 0.575337 0.535241 -0.180000
v 0.607248 0.580807 -0.171190
v 0.636036 0.621912 -0.145623
v 0.658883 0.654534 -0.105801
v 0.673551 0.675478 -0.055623
v 0.526917 0.568109 -0.180000
v 0.557428 0.614626 -0.171190
v 0.584952 0.656589 -0.145623
v 0.606795 0.689891 -0.105801
v 0.620820 0.711273 -0.055623
v 0.477317 0.599530 -0.180000
v 0.506280 0.647028 -0.171190
v 0.532407 0.689876 -0.145623
v 0.553142 0.723880 -0.105801
v 0.566454 0.745712 -0.055623
v 0.426513 0.629329 -0.180000
v 0.453773 0.677825 -0.171190
v 0.478364 0.721574 -0.145623
v 0.497879 0.756294 -0.105801
v 0.510409 0.778585 -0.055623
v 0.374481 0.657329 -0.180000
v 0.399877 0.706829 -0.171190
v 0.422787 0.751482 -0.145623
v 0.440969 0.786920 -0.105801
v 0.452642 0.809672 -0.055623
v 0.321196 0.683358 -0.180000
v 0.344564 0.733848 -0.171190
v 0.365645 0.779395 -0.145623
v 0.382375 0.815542 -0.105801
v 0.393116 0.838749 -0.055623
v 0.266634 0.707239 -0.180000
v 0.287809 0.758688 -0.171190
v 0.306910 0.805102 -0.145623
v 0.322070 0.841936 -0.105801
v 0.331802 0.865585 -0.055623
v 0.210770 0.728797 -0.180000
v 0.229587 0.781156 -0.171190
v 0.246562 0.828391 -0.145623
v 0.260033 0.865876 -0.105801
v 0.268682 0.889943 -0.055623
v 0.153581 0.747857 -0.180000
v 0.169882 0.801055 -0.171190
v 0.184586 0.849046 -0.145623
v 0.196256 0.887132 -0.105801
v 0.203749 0.911584 -0.055623
v 0.095042 0.764244 -0.180000
v 0.108678 0.818188 -0.171190
v 0.120979 0.866852 -0.145623
v 0.130742 0.905472 -0.105801
v 0.137010 0.930267 -0.055623
v 0.035128 0.777783 -0.180000
v 0.045967 0.832359 -0.171190
v 0.055745 0.881593 -0.145623
v 0.063505 0.920666 -0.105801
v 0.068487 0.945752 -0.055623
v -0.026185 0.788299 -0.180000
v -0.018255 0.843375 -0.171190
v -0.011102 0.893059 -0.145623
v -0.005425 0.932488 -0.105801
v -0.001780 0.957804 -0.055623
v -0.088920 0.795617 -0.180000
v -0.083988 0.851042 -0.171190
v -0.079539 0.901042 -0.145623
v -0.076008 0.940721 -0.105801
v -0.073741 0.966197 -0.055623
v -0.153103 0.799562 -0.180000
v -0.151228 0.855174 -0.171190
v -0.149536 0.905343 -0.145623
v -0.148194 0.945158 -0.105801
v -0.147332 0.970720 -0.055623
v -0.218758 0.799958 -0.180000
v -0.219968 0.855589 -0.171190
v -0.221059 0.905775 -0.145623
v -0.221925 0.945603 -0.105801
v -0.222481 0.971174 -0.055623
v -0.285909 0.796630 -0.180000
v -0.290199 0.852109 -0.171190
v -0.294069 0.902157 -0.145623
v -0.297141 0.941876 -0.105801
v -0.299112 0.967376 -0.055623
v -0.354580 0.789404 -0.180000
v -0.361915 0.844563 -0.171190
v -0.368532 0.894322 -0.145623
v -0.373783 0.933811 -0.105801
v -0.377154 0.959164 -0.055623
v -0.424796 0.778104 -0.180000
v -0.435110 0.832783 -0.171190
v -0.444414 0.882110 -0.145623
v -0.451798 0.921256 -0.105801
v -0.456538 0.946389 -0.055623
v -0.496581 0.762556 -0.180000
v -0.509781 0.816610 -0.171190
v -0.521690 0.865372 -0.145623
v -0.531141 0.904070 -0.105801
v -0.537208 0.928916 -0.055623
v -0.569959 0.742583 -0.180000
v -0.585933 0.795882 -0.171190
v -0.600343 0.843964 -0.145623
v -0.611779 0.882122 -0.105801
v -0.619121 0.906620 -0.055623
v -0.644955 0.718012 -0.180000
v -0.663571 0.770445 -0.171190
v -0.680364 0.817746 -0.145623
v -0.693691 0.855284 -0.105801
v -0.702248 0.879385 -0.055623
v -0.721593 0.688666 -0.180000
v -0.742707 0.740143 -0.171190
v -0.761755 0.786580 -0.145623
v -0.776871 0.823434 -0.105801
v -0.786576 0.847095 -0.055623
v -0.799898 0.654372 -0.180000
v -0.823360 0.704820 -0.171190
v -0.844526 0.750329 -0.145623
v -0.861323 0.786446 -0.105801
v -0.872108 0.809635 -0.055623
v -0.879893 0.614952 -0.180000
v -0.905550 0.664319 -0.171190
v -0.928695 0.708853 -0.145623
v -0.947063 0.744196 -0.105801
v -0.958857 0.766887 -0.055623
v -0.961603 0.570234 -0.180000
v -0.989301 0.618483 -0.171190
v -1.014288 0.662010 -0.145623
v -1.034118 0.696553 -0.105801
v -1.046849 0.718731 -0.055623
v -1.045052 0.520041 -0.180000
v -1.074642 0.567153 -0.171190
v -1.101335 0.609653 -0.145623
v -1.122519 0.643381 -0.105801
v -1.136120 0.665036 -0.055623
v -1.130265 0.464198 -0.180000
v -1.161603 0.510165 -0.171190
v -1.189872 0.551632 -0.145623
v -1.212307 0.584541 -0.105801
v -1.226711 0.605669 -0.055623
v -1.217267 0.402531 -0.180000
v -1.250214 0.447356 -0.171190
v -1.279936 0.487794 -0.145623
v -1.303524 0.519885 -0.105801
v -1.318668 0.540489 -0.055623
v -1.306080 0.334864 -0.180000
v -1.340509 0.378561 -0.171190
v -1.371567 0.417980 -0.145623
v -1.396216 0.449263 -0.105801
v -1.412041 0.469349 -0.055623
v -1.396730 0.261022 -0.180000
v -1.432520 0.303610 -0.171190
v -1.464806 0.342029 -0.145623
v -1.490429 0.372519 -0.105801
v -1.506880 0.392095 -0.055623
v -1.489242 0.180830 -0.180000
v -1.526284 0.222324 -0.171190
v -1.559701 0.259756 -0.145623
v -1.586221 0.289463 -0.105801
v -1.603248 0.308535 -0.055623
vn -0.7460 -0.6660 -0.0000
vn 0.7071 -0.7071 -0.0000
vn 0.7071 -0.7072 -0.0000
vn 0.2180 0.2194 0.9510
vn 0.2171 0.2204 0.9509
vn 0.1098 0.1114 0.9877
vn 0.1103 0.1110 0.9877
vn 0.4144 0.4171 0.8089
vn 0.4127 0.4189 0.8088
vn 0.5703 0.5740 0.5876
vn 0.5679 0.5764 0.5876
vn 0.6703 0.6747 0.3089
vn 0.6675 0.6775 0.3089
vn 0.7048 0.7094 -0.0000
vn 0.7019 0.7123 -0.0000
vn 0.2151 0.2225 0.9509
vn 0.1088 0.1125 0.9877
vn 0.4089 0.4228 0.8088
vn 0.5625 0.5817 0.5875
vn 0.6612 0.6837 0.3089
vn 0.6952 0.7188 -0.0000
vn 0.2126 0.2250 0.9509
vn 0.1074 0.1137 0.9877
vn 0.4039 0.4276 0.8087
vn 0.5557 0.5882 0.5875
vn 0.6532 0.6914 0.3088
vn 0.6868 0.7269 -0.0000
vn 0.2095 0.2281 0.9508
vn 0.1058 0.1152 0.9877
vn 0.3980 0.4332 0.8087
vn 0.5475 0.5959 0.5874
vn 0.6435 0.7004 0.3088
vn 0.6766 0.7364 -0.0000
vn 0.2059 0.2315 0.9508
vn 0.1040 0.1169 0.9877
vn 0.3910 0.4396 0.8086
vn 0.5378 0.6048 0.5874
vn 0.6321 0.7107 0.3088
vn 0.6645 0.7473 -0.0000
vn 0.2016 0.2353 0.9508
vn 0.1018 0.1188 0.9877
vn 0.3828 0.4468 0.8086
vn 0.5266 0.6146 0.5873
vn 0.6188 0.7223 0.3087
vn 0.6506 0.7594 -0.0000
vn 0.1967 0.2396 0.9507
vn 0.0993 0.1209 0.9877
vn 0.3735 0.4548 0.8085
vn 0.5137 0.6255 0.5873
vn 0.6037 0.7350 0.3087
vn 0.6347 0.7728 -0.0000
vn 0.1912 0.2441 0.9507
vn 0.0965 0.1231 0.9877
vn 0.3629 0.4633 0.8085
vn 0.4991 0.6372 0.5872
vn 0.5865 0.7488 0.3087
vn 0.6166 0.7873 -0.0000
vn 0.1850 0.2490 0.9507
vn 0.0933 0.1256 0.9877
vn 0.3510 0.4725 0.8084
vn 0.4827 0.6498 0.5872
vn 0.5672 0.7635 0.3087
vn 0.5963 0.8027 -0.0000
vn 0.1780 0.2542 0.9506
vn 0.0897 0.1281 0.9877
vn 0.3377 0.4822 0.8084
vn 0.4644 0.6631 0.5871
vn 0.5456 0.7791 0.3086
vn 0.5737 0.8191 -0.0000
vn 0.1702 0.2596 0.9506
vn 0.0858 0.1308 0.9877
vn 0.3229 0.4923 0.8083
vn 0.4440 0.6769 0.5871
vn 0.5217 0.7954 0.3086
vn 0.5485 0.8362 -0.0000
vn 0.1617 0.2651 0.9506
vn 0.0814 0.1335 0.9877
vn 0.3066 0.5028 0.8082
vn 0.4215 0.6912 0.5870
vn 0.4952 0.8121 0.3086
vn 0.5206 0.8538 -0.0000
vn 0.1522 0.2708 0.9505
vn 0.0766 0.1363 0.9877
vn 0.2886 0.5134 0.8082
vn 0.3967 0.7058 0.5870
vn 0.4661 0.8292 0.3085
vn 0.4900 0.8717 -0.0000
vn 0.1418 0.2765 0.9505
vn 0.0714 0.1392 0.9877
vn 0.2689 0.5240 0.8081
vn 0.3696 0.7204 0.5869
vn 0.4342 0.8463 0.3085
vn 0.4565 0.8897 -0.0000
vn 0.1306 0.2821 0.9505
vn 0.0657 0.1419 0.9877
vn 0.2474 0.5346 0.8081
vn 0.3401 0.7348 0.5869
vn 0.3995 0.8633 0.3085
vn 0.4200 0.9075 -0.0000
vn 0.1183 0.2875 0.9504
vn 0.0595 0.1446 0.9877
vn 0.2242 0.5448 0.8080
vn 0.3082 0.7488 0.5868
vn 0.3620 0.8797 0.3084
vn 0.3806 0.9247 -0.0000
vn 0.1052 0.2927 0.9504
vn 0.0529 0.1472 0.9877
vn 0.1993 0.5545 0.8080
vn 0.2739 0.7620 0.5868
vn 0.3217 0.8952 0.3084
vn 0.3382 0.9411 -0.0000
vn 0.0912 0.2975 0.9504
vn 0.0458 0.1495 0.9877
vn 0.1726 0.5634 0.8079
vn 0.2372 0.7742 0.5867
vn 0.2787 0.9095 0.3084
vn 0.2930 0.9561 -0.0000
vn 0.0763 0.3017 0.9503
vn 0.0383 0.1516 0.9877
vn 0.1444 0.5713 0.8079
vn 0.1985 0.7851 0.5867
vn 0.2331 0.9223 0.3084
vn 0.2451 0.9695 -0.0000
vn 0.0606 0.3053 0.9503
vn 0.0305 0.1534 0.9877
vn 0.1148 0.5781 0.8079
vn 0.1578 0.7943 0.5867
vn 0.1853 0.9331 0.3083
vn 0.1948 0.9808 -0.0000
vn 0.0444 0.3082 0.9503
vn 0.0223 0.1548 0.9877
vn 0.0840 0.5834 0.8078
vn 0.1154 0.8016 0.5866
vn 0.1356 0.9416 0.3083
vn 0.1425 0.9898 -0.0000
vn 0.0276 0.3102 0.9503
vn 0.0139 0.1558 0.9877
vn 0.0522 0.5871 0.8078
vn 0.0718 0.8067 0.5866
vn 0.0843 0.9475 0.3083
vn 0.0886 0.9961 -0.0000
vn 0.0105 0.3112 0.9503
vn 0.0053 0.1563 0.9877
vn 0.0199 0.5891 0.8078
vn 0.0273 0.8094 0.5866
vn 0.0321 0.9507 0.3083
vn 0.0337 0.9994 -0.0000
vn -0.0068 0.3113 0.9503
vn -0.0034 0.1563 0.9877
vn -0.0128 0.5893 0.8078
vn -0.0176 0.8097 0.5866
vn -0.0207 0.9511 0.3083
vn -0.0217 0.9998 -0.0000
vn -0.0240 0.3105 0.9503
vn -0.0121 0.1559 0.9877
vn -0.0454 0.5877 0.8078
vn -0.0624 0.8075 0.5866
vn -0.0733 0.9485 0.3083
vn -0.0771 0.9970 -0.0000
vn -0.0410 0.3087 0.9503
vn -0.0206 0.1550 0.9877
vn -0.0777 0.5843 0.8078
vn -0.1068 0.8028 0.5866
vn -0.1254 0.9430 0.3083
vn -0.1318 0.9913 -0.0000
vn -0.0577 0.3059 0.9503
vn -0.0290 0.1537 0.9877
vn -0.1092 0.5792 0.8078
vn -0.1501 0.7958 0.5866
vn -0.1763 0.9348 0.3083
vn -0.1854 0.9827 -0.0000
vn -0.0738 0.3024 0.9503
vn -0.0371 0.1519 0.9877
vn -0.1398 0.5725 0.8079
vn -0.1921 0.7867 0.5867
vn -0.2257 0.9241 0.3083
vn -0.2372 0.9715 -0.0000
vn -0.0893 0.2981 0.9503
vn -0.0449 0.1498 0.9877
vn -0.1692 0.5645 0.8079
vn -0.2325 0.7757 0.5867
vn -0.2731 0.9112 0.3084
vn -0.2871 0.9579 -0.0000
vn -0.1041 0.2932 0.9504
vn -0.0523 0.1474 0.9877
vn -0.1972 0.5553 0.8079
vn -0.2709 0.7631 0.5867
vn -0.3183 0.8964 0.3084
vn -0.3346 0.9424 -0.0000
vn -0.1180 0.2878 0.9504
vn -0.0594 0.1447 0.9877
vn -0.2236 0.5451 0.8080
vn -0.3073 0.7492 0.5868
vn -0.3610 0.8801 0.3084
vn -0.3795 0.9252 -0.0000
vn -0.1311 0.2820 0.9504
vn -0.0660 0.1418 0.9877
vn -0.2485 0.5342 0.8080
vn -0.3415 0.7342 0.5868
vn -0.4011 0.8625 0.3084
vn -0.4217 0.9067 -0.0000
vn -0.1434 0.2759 0.9504
vn -0.0721 0.1388 0.9877
vn -0.2717 0.5227 0.8081
vn -0.3734 0.7185 0.5869
vn -0.4387 0.8441 0.3085
vn -0.4612 0.8873 -0.0000
vn -0.1547 0.2695 0.9505
vn -0.0779 0.1356 0.9877
vn -0.2933 0.5108 0.8081
vn -0.4031 0.7022 0.5869
vn -0.4736 0.8250 0.3085
vn -0.4979 0.8673 -0.0000
vn -0.1653 0.2631 0.9505
vn -0.0832 0.1325 0.9877
vn -0.3133 0.4988 0.8082
vn -0.4306 0.6856 0.5869
vn -0.5059 0.8055 0.3085
vn -0.5319 0.8468 -0.0000
vn -0.1750 0.2566 0.9505
vn -0.0881 0.1292 0.9877
vn -0.3317 0.4866 0.8082
vn -0.4560 0.6689 0.5870
vn -0.5358 0.7859 0.3085
vn -0.5633 0.8263 -0.0000
vn -0.1839 0.2502 0.9506
vn -0.0926 0.1260 0.9877
vn -0.3487 0.4745 0.8082
vn -0.4795 0.6523 0.5870
vn -0.5633 0.7664 0.3086
vn -0.5922 0.8058 -0.0000
vn -0.1921 0.2439 0.9506
vn -0.0968 0.1229 0.9877
vn -0.3644 0.4625 0.8083
vn -0.5010 0.6359 0.5871
vn -0.5887 0.7472 0.3086
vn -0.6189 0.7855 -0.0000
vn -0.1997 0.2376 0.9506
vn -0.1006 0.1198 0.9877
vn -0.3788 0.4507 0.8083
vn -0.5208 0.6197 0.5871
vn -0.6120 0.7282 0.3086
vn -0.6434 0.7655 -0.0000
vn -0.2033 0.2345 0.9506
vn -0.1025 0.1182 0.9877
vn -0.3857 0.4448 0.8083
vn -0.5303 0.6116 0.5871
vn -0.6231 0.7187 0.3086
vn -0.6551 0.7555 -0.0000
vn 0.2180 0.2194 -0.9510
vn 0.1103 0.1110 -0.9877
vn 0.1098 0.1114 -0.9877
vn 0.2171 0.2204 -0.9509
vn 0.4144 0.4171 -0.8089
vn 0.4127 0.4189 -0.8088
vn 0.5703 0.5740 -0.5876
vn 0.5679 0.5764 -0.5876
vn 0.6703 0.6747 -0.3089
vn 0.6675 0.6775 -0.3089
vn 0.1088 0.1125 -0.9877
vn 0.2151 0.2225 -0.9509
vn 0.4089 0.4228 -0.8088
vn 0.5625 0.5817 -0.5875
vn 0.6612 0.6837 -0.3089
vn 0.1074 0.1137 -0.9877
vn 0.2126 0.2250 -0.9509
vn 0.4039 0.4276 -0.8087
vn 0.5557 0.5882 -0.5875
vn 0.6532 0.6914 -0.3088
vn 0.1058 0.1152 -0.9877
vn 0.2095 0.2281 -0.9508
vn 0.3980 0.4332 -0.8087
vn 0.5475 0.5959 -0.5874
vn 0.6435 0.7004 -0.3088
vn 0.1040 0.1169 -0.9877
vn 0.2059 0.2315 -0.9508
vn 0.3910 0.4396 -0.8086
vn 0.5378 0.6048 -0.5874
vn 0.6321 0.7107 -0.3088
vn 0.1018 0.1188 -0.9877
vn 0.2016 0.2353 -0.9508
vn 0.3828 0.4468 -0.8086
vn 0.5266 0.6146 -0.5873
vn 0.6188 0.7223 -0.3087
vn 0.0993 0.1209 -0.9877
vn 0.1967 0.2396 -0.9507
vn 0.3735 0.4548 -0.8085
vn 0.5137 0.6255 -0.5873
vn 0.6037 0.7350 -0.3087
vn 0.0965 0.1231 -0.9877
vn 0.1912 0.2441 -0.9507
vn 0.3629 0.4633 -0.8085
vn 0.4991 0.6372 -0.5872
vn 0.5865 0.7488 -0.3087
vn 0.0933 0.1256 -0.9877
vn 0.1850 0.2490 -0.9507
vn 0.3510 0.4725 -0.8084
vn 0.4827 0.6498 -0.5872
vn 0.5672 0.7635 -0.3087
vn 0.0897 0.1281 -0.9877
vn 0.1780 0.2542 -0.9506
vn 0.3377 0.4822 -0.8084
vn 0.4644 0.6631 -0.5871
vn 0.5456 0.7791 -0.3086
vn 0.0858 0.1308 -0.9877
vn 0.1702 0.2596 -0.9506
vn 0.3229 0.4923 -0.8083
vn 0.4440 0.6769 -0.5871
vn 0.5217 0.7954 -0.3086
vn 0.0814 0.1335 -0.9877
vn 0.1617 0.2651 -0.9506
vn 0.3066 0.5028 -0.8082
vn 0.4215 0.6912 -0.5870
vn 0.4952 0.8121 -0.3086
vn 0.0766 0.1363 -0.9877
vn 0.1522 0.2708 -0.9505
vn 0.2886 0.5134 -0.8082
vn 0.3967 0.7058 -0.5870
vn 0.4661 0.8292 -0.3085
vn 0.0714 0.1392 -0.9877
vn 0.1418 0.2765 -0.9505
vn 0.2689 0.5240 -0.8081
vn 0.3696 0.7204 -0.5869
vn 0.4342 0.8463 -0.3085
vn 0.0657 0.1419 -0.9877
vn 0.1306 0.2821 -0.9505
vn 0.2474 0.5346 -0.8081
vn 0.3401 0.7348 -0.5869
vn 0.3995 0.8633 -0.3085
vn 0.0595 0.1446 -0.9877
vn 0.1183 0.2875 -0.9504
vn 0.2242 0.5448 -0.8080
vn 0.3082 0.7488 -0.5868
vn 0.3620 0.8797 -0.3084
vn 0.0529 0.1472 -0.9877
vn 0.1052 0.2927 -0.9504
vn 0.1993 0.5545 -0.8080
vn 0.2739 0.7620 -0.5868
vn 0.3217 0.8952 -0.3084
vn 0.0458 0.1495 -0.9877
vn 0.0912 0.2975 -0.9504
vn 0.1726 0.5634 -0.8079
vn 0.2372 0.7742 -0.5867
vn 0.2787 0.9095 -0.3084
vn 0.0383 0.1516 -0.9877
vn 0.0763 0.3017 -0.9503
vn 0.1444 0.5713 -0.8079
vn 0.1985 0.7851 -0.5867
vn 0.2331 0.9223 -0.3084
vn 0.0305 0.1534 -0.9877
vn 0.0606 0.3053 -0.9503
vn 0.1148 0.5781 -0.8079
vn 0.1578 0.7943 -0.5867
vn 0.1853 0.9331 -0.3083
vn 0.0223 0.1548 -0.9877
vn 0.0444 0.3082 -0.9503
vn 0.0840 0.5834 -0.8078
vn 0.1154 0.8016 -0.5866
vn 0.1356 0.9416 -0.3083
vn 0.0139 0.1558 -0.9877
vn 0.0276 0.3102 -0.9503
vn 0.0522 0.5871 -0.8078
vn 0.0718 0.8067 -0.5866
vn 0.0843 0.9475 -0.3083
vn 0.0053 0.1563 -0.9877
vn 0.0105 0.3112 -0.9503
vn 0.0199 0.5891 -0.8078
vn 0.0273 0.8094 -0.5866
vn 0.0321 0.9507 -0.3083
vn -0.0034 0.1563 -0.9877
vn -0.0068 0.3113 -0.9503
vn -0.0128 0.5893 -0.8078
vn -0.0176 0.8097 -0.5866
vn -0.0207 0.9511 -0.3083
vn -0.0121 0.1559 -0.9877
vn -0.0240 0.3105 -0.9503
vn -0.0454 0.5877 -0.8078
vn -0.0624 0.8075 -0.5866
vn -0.0733 0.9485 -0.3083
vn -0.0206 0.1550 -0.9877
vn -0.0410 0.3087 -0.9503
vn -0.0777 0.5843 -0.8078
vn -0.1068 0.8028 -0.5866
vn -0.1254 0.9430 -0.3083
vn -0.0290 0.1537 -0.9877
vn -0.0577 0.3059 -0.9503
vn -0.1092 0.5792 -0.8078
vn -0.1501 0.7958 -0.5866
vn -0.1763 0.9348 -0.3083
vn -0.0371 0.1519 -0.9877
vn -0.0738 0.3024 -0.9503
vn -0.1398 0.5725 -0.8079
vn -0.1921 0.7867 -0.5867
vn -0.2257 0.9241 -0.3083
vn -0.0449 0.1498 -0.9877
vn -0.0893 0.2981 -0.9503
vn -0.1692 0.5645 -0.8079
vn -0.2325 0.7757 -0.5867
vn -0.2731 0.9112 -0.3084
vn -0.0523 0.1474 -0.9877
vn -0.1041 0.2932 -0.9504
vn -0.1972 0.5553 -0.8079
vn -0.2709 0.7631 -0.5867
vn -0.3183 0.8964 -0.3084
vn -0.0594 0.1447 -0.9877
vn -0.1180 0.2878 -0.9504
vn -0.2236 0.5451 -0.8080
vn -0.3073 0.7492 -0.5868
vn -0.3610 0.8801 -0.3084
vn -0.0660 0.1418 -0.9877
vn -0.1311 0.2820 -0.9504
vn -0.2485 0.5342 -0.8080
vn -0.3415 0.7342 -0.5868
vn -0.4011 0.8625 -0.3084
vn -0.0721 0.1388 -0.9877
vn -0.1434 0.2759 -0.9504
vn -0.2717 0.5227 -0.8081
vn -0.3734 0.7185 -0.5869
vn -0.4387 0.8441 -0.3085
vn -0.0779 0.1356 -0.9877
vn -0.1547 0.2695 -0.9505
vn -0.2933 0.5108 -0.8081
vn -0.4031 0.7022 -0.5869
vn -0.4736 0.8250 -0.3085
vn -0.0832 0.1325 -0.9877
vn -0.1653 0.2631 -0.9505
vn -0.3133 0.4988 -0.8082
vn -0.4306 0.6856 -0.5869
vn -0.5059 0.8055 -0.3085
vn -0.0881 0.1292 -0.9877
vn -0.1750 0.2566 -0.9505
vn -0.3317 0.4866 -0.8082
vn -0.4560 0.6689 -0.5870
vn -0.5358 0.7859 -0.3085
vn -0.0926 0.1260 -0.9877
vn -0.1839 0.2502 -0.9506
vn -0.3487 0.4745 -0.8082
vn -0.4795 0.6523 -0.5870
vn -0.5633 0.7664 -0.3086
vn -0.0968 0.1229 -0.9877
vn -0.1921 0.2439 -0.9506
vn -0.3644 0.4625 -0.8083
vn -0.5010 0.6359 -0.5871
vn -0.5887 0.7472 -0.3086
vn -0.1006 0.1198 -0.9877
vn -0.1997 0.2376 -0.9506
vn -0.3788 0.4507 -0.8083
vn -0.5208 0.6197 -0.5871
vn -0.6120 0.7282 -0.3086
vn -0.1025 0.1182 -0.9877
vn -0.2033 0.2345 -0.9506
vn -0.3857 0.4448 -0.8083
vn -0.5303 0.6116 -0.5871
vn -0.6231 0.7187 -0.3086
vt 0.200000 0.000000
vt 1.000000 0.000000
vt 0.000000 0.000000
vt 0.400000 0.000000
vt 0.600000 0.000000
vt 0.800000 0.000000
vt 0.000000 0.200000
vt 0.025000 0.200000
vt 0.025000 0.000000
vt 0.000000 0.400000
vt 0.025000 0.400000
vt 0.000000 0.600000
vt 0.025000 0.600000
vt 0.000000 0.800000
vt 0.025000 0.800000
vt 0.000000 1.000000
vt 0.025000 1.000000
vt 0.050000 0.200000
vt 0.050000 0.000000
vt 0.050000 0.400000
vt 0.050000 0.600000
vt 0.050000 0.800000
vt 0.050000 1.000000
vt 0.075000 0.200000
vt 0.075000 0.000000
vt 0.075000 0.400000
vt 0.075000 0.600000
vt 0.075000 0.800000
vt 0.075000 1.000000
vt 0.100000 0.200000
vt 0.100000 0.000000
vt 0.100000 0.400000
vt 0.100000 0.600000
vt 0.100000 0.800000
vt 0.100000 1.000000
vt 0.125000 0.200000
vt 0.125000 0.000000
vt 0.125000 0.400000
vt 0.125000 0.600000
vt 0.125000 0.800000
vt 0.125000 1.000000
vt 0.150000 0.200000
vt 0.150000 0.000000
vt 0.150000 0.400000
vt 0.150000 0.600000
vt 0.150000 0.800000
vt 0.150000 1.000000
vt 0.175000 0.200000
vt 0.175000 0.000000
vt 0.175000 0.400000
vt 0.175000 0.600000
vt 0.175000 0.800000
vt 0.175000 1.000000
vt 0.200000 0.200000
vt 0.200000 0.400000
vt 0.200000 0.600000
vt 0.200000 0.800000
vt 0.200000 1.000000
vt 0.225000 0.200000
vt 0.225000 0.000000
vt 0.225000 0.400000
vt 0.225000 0.600000
vt 0.225000 0.800000
vt 0.225000 1.000000
vt 0.250000 0.200000
vt 0.250000 0.000000
vt 0.250000 0.400000
vt 0.250000 0.600000
vt 0.250000 0.800000
vt 0.250000 1.000000
vt 0.275000 0.200000
vt 0.275000 0.000000
vt 0.275000 0.400000
vt 0.275000 0.600000
vt 0.275000 0.800000
vt 0.275000 1.000000
vt 0.300000 0.200000
vt 0.300000 0.000000
vt 0.300000 0.400000
vt 0.300000 0.600000
vt 0.300000 0.800000
vt 0.300000 1.000000
vt 0.325000 0.200000
vt 0.325000 0.000000
vt 0.325000 0.400000
vt 0.325000 0.600000
vt 0.325000 0.800000
vt 0.325000 1.000000
vt 0.350000 0.200000
vt 0.350000 0.000000
vt 0.350000 0.400000
vt 0.350000 0.600000
vt 0.350000 0.800000
vt 0.350000 1.000000
vt 0.375000 0.200000
vt 0.375000 0.000000
vt 0.375000 0.400000
vt 0.375000 0.600000
vt 0.375000 0.800000
vt 0.375000 1.000000
vt 0.400000 0.200000
vt 0.400000 0.400000
vt 0.400000 0.600000
vt 0.400000 0.800000
vt 0.400000 1.000000
vt 0.425000 0.200000
vt 0.425000 0.000000
vt 0.425000 0.400000
vt 0.425000 0.600000
vt 0.425000 0.800000
vt 0.425000 1.000000
vt 0.450000 0.200000
vt 0.450000 0.000000
vt 0.450000 0.400000
vt 0.450000 0.600000
vt 0.450000 0.800000
vt 0.450000 1.000000
vt 0.475000 0.200000
vt 0.475000 0.000000
vt 0.475000 0.400000
vt 0.475000 0.600000
vt 0.475000 0.800000
vt 0.475000 1.000000
vt 0.500000 0.200000
vt 0.500000 0.000000
vt 0.500000 0.400000
vt 0.500000 0.600000
vt 0.500000 0.800000
vt 0.500000 1.000000
vt 0.525000 0.200000
vt 0.525000 0.000000
vt 0.525000 0.400000
vt 0.525000 0.600000
vt 0.525000 0.800000
vt 0.525000 1.000000
vt 0.550000 0.200000
vt 0.550000 0.000000
vt 0.550000 0.400000
vt 0.550000 0.600000
vt 0.550000 0.800000
vt 0.550000 1.000000
vt 0.575000 0.200000
vt 0.575000 0.000000
vt 0.575000 0.400000
vt 0.575000 0.600000
vt 0.575000 0.800000
vt 0.575000 1.000000
vt 0.600000 0.200000
vt 0.600000 0.400000
vt 0.600000 0.600000
vt 0.600000 0.800000
vt 0.600000 1.000000
vt 0.625000 0.200000
vt 0.625000 0.000000
vt 0.625000 0.400000
vt 0.625000 0.600000
vt 0.625000 0.800000
vt 0.625000 1.000000
vt 0.650000 0.200000
vt 0.650000 0.000000
vt 0.650000 0.400000
vt 0.650000 0.600000
vt 0.650000 0.800000
vt 0.650000 1.000000
vt 0.675000 0.200000
vt 0.675000 0.000000
vt 0.675000 0.400000
vt 0.675000 0.600000
vt 0.675000 0.800000
vt 0.675000 1.000000
vt 0.700000 0.200000
vt 0.700000 0.000000
vt 0.700000 0.400000
vt 0.700000 0.600000
vt 0.700000 0.800000
vt 0.700000 1.000000
vt 0.725000 0.200000
vt 0.725000 0.000000
vt 0.725000 0.400000
vt 0.725000 0.600000
vt 0.725000 0.800000
vt 0.725000 1.000000
vt 0.750000 0.200000
vt 0.750000 0.000000
vt 0.750000 0.400000
vt 0.750000 0.600000
vt 0.750000 0.800000
vt 0.750000 1.000000
vt 0.775000 0.200000
vt 0.775000 0.000000
vt 0.775000 0.400000
vt 0.775000 0.600000
vt 0.775000 0.800000
vt 0.775000 1.000000
vt 0.800000 0.200000
vt 0.800000 0.400000
vt 0.800000 0.600000
vt 0.800000 0.800000
vt 0.800000 1.000000
vt 0.825000 0.200000
vt 0.825000 0.000000
vt 0.825000 0.400000
vt 0.825000 0.600000
vt 0.825000 0.800000
vt 0.825000 1.000000
vt 0.850000 0.200000
vt 0.850000 0.000000
vt 0.850000 0.400000
vt 0.850000 0.600000
vt 0.850000 0.800000
vt 0.850000 1.000000
vt 0.875000 0.200000
vt 0.875000 0.000000
vt 0.875000 0.400000
vt 0.875000 0.600000
vt 0.875000 0.800000
vt 0.875000 1.000000
vt 0.900000 0.200000
vt 0.900000 0.000000
vt 0.900000 0.400000
vt 0.900000 0.600000
vt 0.900000 0.800000
vt 0.900000 1.000000
vt 0.925000 0.200000
vt 0.925000 0.000000
vt 0.925000 0.400000
vt 0.925000 0.600000
vt 0.925000 0.800000
vt 0.925000 1.000000
vt 0.950000 0.200000
vt 0.950000 0.000000
vt 0.950000 0.400000
vt 0.950000 0.600000
vt 0.950000 0.800000
vt 0.950000 1.000000
vt 0.975000 0.200000
vt 0.975000 0.000000
vt 0.975000 0.400000
vt 0.975000 0.600000
vt 0.975000 0.800000
vt 0.975000 1.000000
vt 1.000000 0.200000
vt 1.000000 0.400000
vt 1.000000 0.600000
vt 1.000000 0.800000
vt 1.000000 1.000000
s 1
usemtl Material
f 2/1/1 6/2/1 1/3/1
f 3/4/1 6/2/1 2/1/1
f 4/5/1 6/2/1 3/4/1
f 5/6/1 6/2/1 4/5/1
f 12/2/2 8/1/2 7/3/2
f 12/2/2 9/4/2 8/1/2
f 12/2/2 10/5/2 9/4/2
f 12/2/2 11/6/3 10/5/2
f 14/7/4 20/8/5 19/9/6 13/3/7
f 15/10/8 21/11/9 20/8/5 14/7/4
f 16/12/10 22/13/11 21/11/9 15/10/8
f 17/14/12 23/15/13 22/13/11 16/12/10
f 18/16/14 24/17/15 23/15/13 17/14/12
f 20/8/5 26/18/16 25/19/17 19/9/6
f 21/11/9 27/20/18 26/18/16 20/8/5
f 22/13/11 28/21/19 27/20/18 21/11/9
f 23/15/13 29/22/20 28/21/19 22/13/11
f 24/17/15 30/23/21 29/22/20 23/15/13
f 26/18/16 32/24/22 31/25/23 25/19/17
f 27/20/18 33/26/24 32/24/22 26/18/16
f 28/21/19 34/27/25 33/26/24 27/20/18
f 29/22/20 35/28/26 34/27/25 28/21/19
f 30/23/21 36/29/27 35/28/26 29/22/20
f 32/24/22 38/30/28 37/31/29 31/25/23
f 33/26/24 39/32/30 38/30/28 32/24/22
f 34/27/25 40/33/31 39/32/30 33/26/24
f 35/28/26 41/34/32 40/33/31 34/27/25
f 36/29/27 42/35/33 41/34/32 35/28/26
f 38/30/28 44/36/34 43/37/35 37/31/29
f 39/32/30 45/38/36 44/36/34 38/30/28
f 40/33/31 46/39/37 45/38/36 39/32/30
f 41/34/32 47/40/38 46/39/37 40/33/31
f 42/35/33 48/41/39 47/40/38 41/34/32
f 44/36/34 50/42/40 49/43/41 43/37/35
f 45/38/36 51/44/42 50/42/40 44/36/34
f 46/39/37 52/45/43 51/44/42 45/38/36
f 47/40/38 53/46/44 52/45/43 46/39/37
f 48/41/39 54/47/45 53/46/44 47/40/38
f 50/42/40 56/48/46 55/49/47 49/43/41
f 51/44/42 57/50/48 56/48/46 50/42/40
f 52/45/43 58/51/49 57/50/48 51/44/42
f 53/46/44 59/52/50 58/51/49 52/45/43
f 54/47/45 60/53/51 59/52/50 53/46/44
f 56/48/46 62/54/52 61/1/53 55/49/47
f 57/50/48 63/55/54 62/54/52 56/48/46
f 58/51/49 64/56/55 63/55/54 57/50/48
f 59/52/50 65/57/56 64/56/55 58/51/49
f 60/53/51 66/58/57 65/57/56 59/52/50
f 62/54/52 68/59/58 67/60/59 61/1/53
f 63/55/54 69/61/60 68/59/58 62/54/52
f 64/56/55 70/62/61 69/61/60 63/55/54
f 65/57/56 71/63/62 70/62/61 64/56/55
f 66/58/57 72/64/63 71/63/62 65/57/56
f 68/59/58 74/65/64 73/66/65 67/60/59
f 69/61/60 75/67/66 74/65/64 68/59/58
f 70/62/61 76/68/67 75/67/66 69/61/60
f 71/63/62 77/69/68 76/68/67 70/62/61
f 72/64/63 78/70/69 77/69/68 71/63/62
f 74/65/64 80/71/70 79/72/71 73/66/65
f 75/67/66 81/73/72 80/71/70 74/65/64
f 76/68/67 82/74/73 81/73/72 75/67/66
f 77/69/68 83/75/74 82/74/73 76/68/67
f 78/70/69 84/76/75 83/75/74 77/69/68
f 80/71/70 86/77/76 85/78/77 79/72/71
f 81/73/72 87/79/78 86/77/76 80/71/70
f 82/74/73 88/80/79 87/79/78 81/73/72
f 83/75/74 89/81/80 88/80/79 82/74/73
f 84/76/75 90/82/81 89/81/80 83/75/74
f 86/77/76 92/83/82 91/84/83 85/78/77
f 87/79/78 93/85/84 92/83/82 86/77/76
f 88/80/79 94/86/85 93/85/84 87/79/78
f 89/81/80 95/87/86 94/86/85 88/80/79
f 90/82/81 96/88/87 95/87/86 89/81/80
f 92/83/82 98/89/88 97/90/89 91/84/83
f 93/85/84 99/91/90 98/89/88 92/83/82
f 94/86/85 100/92/91 99/91/90 93/85/84
f 95/87/86 101/93/92 100/92/91 94/86/85
f 96/88/87 102/94/93 101/93/92 95/87/86
f 98/89/88 104/95/94 103/96/95 97/90/89
f 99/91/90 105/97/96 104/95/94 98/89/88
f 100/92/91 106/98/97 105/97/96 99/91/90
f 101/93/92 107/99/98 106/98/97 100/92/91
f 102/94/93 108/100/99 107/99/98 101/93/92
f 104/95/94 110/101/100 109/4/101 103/96/95
f 105/97/96 111/102/102 110/101/100 104/95/94
f 106/98/97 112/103/103 111/102/102 105/97/96
f 107/99/98 113/104/104 112/103/103 106/98/97
f 108/100/99 114/105/105 113/104/104 107/99/98
f 110/101/100 116/106/106 115/107/107 109/4/101
f 111/102/102 117/108/108 116/106/106 110/101/100
f 112/103/103 118/109/109 117/108/108 111/102/102
f 113/104/104 119/110/110 118/109/109 112/103/103
f 114/105/105 120/111/111 119/110/110 113/104/104
f 116/106/106 122/112/112 121/113/113 115/107/107
f 117/108/108 123/114/114 122/112/112 116/106/106
f 118/109/109 124/115/115 123/114/114 117/108/108
f 119/110/110 125/116/116 124/115/115 118/109/109
f 120/111/111 126/117/117 125/116/116 119/110/110
f 122/112/112 128/118/118 127/119/119 121/113/113
f 123/114/114 129/120/120 128/118/118 122/112/112
f 124/115/115 130/121/121 129/120/120 123/114/114
f 125/116/116 131/122/122 130/121/121 124/115/115
f 126/117/117 132/123/123 131/122/122 125/116/116
f 128/118/118 134/124/124 133/125/125 127/119/119
f 129/120/120 135/126/126 134/124/124 128/118/118
f 130/121/121 136/127/127 135/126/126 129/120/120
f 131/122/122 137/128/128 136/127/127 130/121/121
f 132/123/123 138/129/129 137/128/128 131/122/122
f 134/124/124 140/130/130 139/131/131 133/125/125
f 135/126/126 141/132/132 140/130/130 134/124/124
f 136/127/127 142/133/133 141/132/132 135/126/126
f 137/128/128 143/134/134 142/133/133 136/127/127
f 138/129/129 144/135/135 143/134/134 137/128/128
f 140/130/130 146/136/136 145/137/137 139/131/131
f 141/132/132 147/138/138 146/136/136 140/130/130
f 142/133/133 148/139/139 147/138/138 141/132/132
f 143/134/134 149/140/140 148/139/139 142/133/133
f 144/135/135 150/141/141 149/140/140 143/134/134
f 146/136/136 152/142/142 151/143/143 145/137/137
f 147/138/138 153/144/144 152/142/142 146/136/136
f 148/139/139 154/145/145 153/144/144 147/138/138
f 149/140/140 155/146/146 154/145/145 148/139/139
f 150/141/141 156/147/147 155/146/146 149/140/140
f 152/142/142 158/148/148 157/5/149 151/143/143
f 153/144/144 159/149/150 158/148/148 152/142/142
f 154/145/145 160/150/151 159/149/150 153/144/144
f 155/146/146 161/151/152 160/150/151 154/145/145
f 156/147/147 162/152/153 161/151/152 155/146/146
f 158/148/148 164/153/154 163/154/155 157/5/149
f 159/149/150 165/155/156 164/153/154 158/148/148
f 160/150/151 166/156/157 165/155/156 159/149/150
f 161/151/152 167/157/158 166/156/157 160/150/151
f 162/152/153 168/158/159 167/157/158 161/151/152
f 164/153/154 170/159/160 169/160/161 163/154/155
f 165/155/156 171/161/162 170/159/160 164/153/154
f 166/156/157 172/162/163 171/161/162 165/155/156
f 167/157/158 173/163/164 172/162/163 166/156/157
f 168/158/159 174/164/165 173/163/164 167/157/158
f 170/159/160 176/165/166 175/166/167 169/160/161
f 171/161/162 177/167/168 176/165/166 170/159/160
f 172/162/163 178/168/169 177/167/168 171/161/162
f 173/163/164 179/169/170 178/168/169 172/162/163
f 174/164/165 180/170/171 179/169/170 173/163/164
f 176/165/166 182/171/172 181/172/173 175/166/167
f 177/167/168 183/173/174 182/171/172 176/165/166
f 178/168/169 184/174/175 183/173/174 177/167/168
f 179/169/170 185/175/176 184/174/175 178/168/169
f 180/170/171 186/176/177 185/175/176 179/169/170
f 182/171/172 188/177/178 187/178/179 181/172/173
f 183/173/174 189/179/180 188/177/178 182/171/172
f 184/174/175 190/180/181 189/179/180 183/173/174
f 185/175/176 191/181/182 190/180/181 184/174/175
f 186/176/177 192/182/183 191/181/182 185/175/176
f 188/177/178 194/183/184 193/184/185 187/178/179
f 189/179/180 195/185/186 194/183/184 188/177/178
f 190/180/181 196/186/187 195/185/186 189/179/180
f 191/181/182 197/187/188 196/186/187 190/180/181
f 192/182/183 198/188/189 197/187/188 191/181/182
f 194/183/184 200/189/190 199/190/191 193/184/185
f 195/185/186 201/191/192 200/189/190 194/183/184
f 196/186/187 202/192/193 201/191/192 195/185/186
f 197/187/188 203/193/194 202/192/193 196/186/187
f 198/188/189 204/194/195 203/193/194 197/187/188
f 200/189/190 206/195/196 205/6/197 199/190/191
f 201/191/192 207/196/198 206/195/196 200/189/190
f 202/192/193 208/197/199 207/196/198 201/191/192
f 203/193/194 209/198/200 208/197/199 202/192/193
f 204/194/195 210/199/201 209/198/200 203/193/194
f 206/195/196 212/200/202 211/201/203 205/6/197
f 207/196/198 213/202/204 212/200/202 206/195/196
f 208/197/199 214/203/205 213/202/204 207/196/198
f 209/198/200 215/204/206 214/203/205 208/197/199
f 210/199/201 216/205/207 215/204/206 209/198/200
f 212/200/202 218/206/208 217/207/209 211/201/203
f 213/202/204 219/208/210 218/206/208 212/200/202
f 214/203/205 220/209/211 219/208/210 213/202/204
f 215/204/206 221/210/212 220/209/211 214/203/205
f 216/205/207 222/211/213 221/210/212 215/204/206
f 218/206/208 224/212/214 223/213/215 217/207/209
f 219/208/210 225/214/216 224/212/214 218/206/208
f 220/209/211 226/215/217 225/214/216 219/208/210
f 221/210/212 227/216/218 226/215/217 220/209/211
f 222/211/213 228/217/219 227/216/218 221/210/212
f 224/212/214 230/218/220 229/219/221 223/213/215
f 225/214/216 231/220/222 230/218/220 224/212/214
f 226/215/217 232/221/223 231/220/222 225/214/216
f 227/216/218 233/222/224 232/221/223 226/215/217
f 228/217/219 234/223/225 233/222/224 227/216/218
f 230/218/220 236/224/226 235/225/227 229/219/221
f 231/220/222 237/226/228 236/224/226 230/218/220
f 232/221/223 238/227/229 237/226/228 231/220/222
f 233/222/224 239/228/230 238/227/229 232/221/223
f 234/223/225 240/229/231 239/228/230 233/222/224
f 236/224/226 242/230/232 241/231/233 235/225/227
f 237/226/228 243/232/234 242/230/232 236/224/226
f 238/227/229 244/233/235 243/232/234 237/226/228
f 239/228/230 245/234/236 244/233/235 238/227/229
f 240/229/231 246/235/237 245/234/236 239/228/230
f 242/230/232 248/236/238 247/237/239 241/231/233
f 243/232/234 249/238/240 248/236/238 242/230/232
f 244/233/235 250/239/241 249/238/240 243/232/234
f 245/234/236 251/240/242 250/239/241 244/233/235
f 246/235/237 252/241/243 251/240/242 245/234/236
f 248/236/238 254/242/244 253/2/245 247/237/239
f 249/238/240 255/243/246 254/242/244 248/236/238
f 250/239/241 256/244/247 255/243/246 249/238/240
f 251/240/242 257/245/248 256/244/247 250/239/241
f 252/241/243 258/246/249 257/245/248 251/240/242
f 260/1/1 259/3/1 6/2/1
f 261/4/1 260/1/1 6/2/1
f 262/5/1 261/4/1 6/2/1
f 263/6/1 262/5/1 6/2/1
f 12/2/2 264/3/2 265/1/2
f 12/2/2 265/1/2 266/4/2
f 12/2/2 266/4/2 267/5/2
f 12/2/2 267/5/2 268/6/3
f 270/7/250 269/3/251 274/9/252 275/8/253
f 271/10/254 270/7/250 275/8/253 276/11/255
f 272/12/256 271/10/254 276/11/255 277/13/257
f 273/14/258 272/12/256 277/13/257 278/15/259
f 18/16/14 273/14/258 278/15/259 24/17/15
f 275/8/253 274/9/252 279/19/260 280/18/261
f 276/11/255 275/8/253 280/18/261 281/20/262
f 277/13/257 276/11/255 281/20/262 282/21/263
f 278/15/259 277/13/257 282/21/263 283/22/264
f 24/17/15 278/15/259 283/22/264 30/23/21
f 280/18/261 279/19/260 284/25/265 285/24/266
f 281/20/262 280/18/261 285/24/266 286/26/267
f 282/21/263 281/20/262 286/26/267 287/27/268
f 283/22/264 282/21/263 287/27/268 288/28/269
f 30/23/21 283/22/264 288/28/269 36/29/27
f 285/24/266 284/25/265 289/31/270 290/30/271
f 286/26/267 285/24/266 290/30/271 291/32/272
f 287/27/268 286/26/267 291/32/272 292/33/273
f 288/28/269 287/27/268 292/33/273 293/34/274
f 36/29/27 288/28/269 293/34/274 42/35/33
f 290/30/271 289/31/270 294/37/275 295/36/276
f 291/32/272 290/30/271 295/36/276 296/38/277
f 292/33/273 291/32/272 296/38/277 297/39/278
f 293/34/274 292/33/273 297/39/278 298/40/279
f 42/35/33 293/34/274 298/40/279 48/41/39
f 295/36/276 294/37/275 299/43/280 300/42/281
f 296/38/277 295/36/276 300/42/281 301/44/282
f 297/39/278 296/38/277 301/44/282 302/45/283
f 298/40/279 297/39/278 302/45/283 303/46/284
f 48/41/39 298/40/279 303/46/284 54/47/45
f 300/42/281 299/43/280 304/49/285 305/48/286
f 301/44/282 300/42/281 305/48/286 306/50/287
f 302/45/283 301/44/282 306/50/287 307/51/288
f 303/46/284 302/45/283 307/51/288 308/52/289
f 54/47/45 303/46/284 308/52/289 60/53/51
f 305/48/286 304/49/285 309/1/290 310/54/291
f 306/50/287 305/48/286 310/54/291 311/55/292
f 307/51/288 306/50/287 311/55/292 312/56/293
f 308/52/289 307/51/288 312/56/293 313/57/294
f 60/53/51 308/52/289 313/57/294 66/58/57
f 310/54/291 309/1/290 314/60/295 315/59/296
f 311/55/292 310/54/291 315/59/296 316/61/297
f 312/56/293 311/55/292 316/61/297 317/62/298
f 313/57/294 312/56/293 317/62/298 318/63/299
f 66/58/57 313/57/294 318/63/299 72/64/63
f 315/59/296 314/60/295 319/66/300 320/65/301
f 316/61/297 315/59/296 320/65/301 321/67/302
f 317/62/298 316/61/297 321/67/302 322/68/303
f 318/63/299 317/62/298 322/68/303 323/69/304
f 72/64/63 318/63/299 323/69/304 78/70/69
f 320/65/301 319/66/300 324/72/305 325/71/306
f 321/67/302 320/65/301 325/71/306 326/73/307
f 322/68/303 321/67/302 326/73/307 327/74/308
f 323/69/304 322/68/303 327/74/308 328/75/309
f 78/70/69 323/69/304 328/75/309 84/76/75
f 325/71/306 324/72/305 329/78/310 330/77/311
f 326/73/307 325/71/306 330/77/311 331/79/312
f 327/74/308 326/73/307 331/79/312 332/80/313
f 328/75/309 327/74/308 332/80/313 333/81/314
f 84/76/75 328/75/309 333/81/314 90/82/81
f 330/77/311 329/78/310 334/84/315 335/83/316
f 331/79/312 330/77/311 335/83/316 336/85/317
f 332/80/313 331/79/312 336/85/317 337/86/318
f 333/81/314 332/80/313 337/86/318 338/87/319
f 90/82/81 333/81/314 338/87/319 96/88/87
f 335/83/316 334/84/315 339/90/320 340/89/321
f 336/85/317 335/83/316 340/89/321 341/91/322
f 337/86/318 336/85/317 341/91/322 342/92/323
f 338/87/319 337/86/318 342/92/323 343/93/324
f 96/88/87 338/87/319 343/93/324 102/94/93
f 340/89/321 339/90/320 344/96/325 345/95/326
f 341/91/322 340/89/321 345/95/326 346/97/327
f 342/92/323 341/91/322 346/97/327 347/98/328
f 343/93/324 342/92/323 347/98/328 348/99/329
f 102/94/93 343/93/324 348/99/329 108/100/99
f 345/95/326 344/96/325 349/4/330 350/101/331
f 346/97/327 345/95/326 350/101/331 351/102/332
f 347/98/328 346/97/327 351/102/332 352/103/333
f 348/99/329 347/98/328 352/103/333 353/104/334
f 108/100/99 348/99/329 353/104/334 114/105/105
f 350/101/331 349/4/330 354/107/335 355/106/336
f 351/102/332 350/101/331 355/106/336 356/108/337
f 352/103/333 351/102/332 356/108/337 357/109/338
f 353/104/334 352/103/333 357/109/338 358/110/339
f 114/105/105 353/104/334 358/110/339 120/111/111
f 355/106/336 354/107/335 359/113/340 360/112/341
f 356/108/337 355/106/336 360/112/341 361/114/342
f 357/109/338 356/108/337 361/114/342 362/115/343
f 358/110/339 357/109/338 362/115/343 363/116/344
f 120/111/111 358/110/339 363/116/344 126/117/117
f 360/112/341 359/113/340 364/119/345 365/118/346
f 361/114/342 360/112/341 365/118/346 366/120/347
f 362/115/343 361/114/342 366/120/347 367/121/348
f 363/116/344 362/115/343 367/121/348 368/122/349
f 126/117/117 363/116/344 368/122/349 132/123/123
f 365/118/346 364/119/345 369/125/350 370/124/351
f 366/120/347 365/118/346 370/124/351 371/126/352
f 367/121/348 366/120/347 371/126/352 372/127/353
f 368/122/349 367/121/348 372/127/353 373/128/354
f 132/123/123 368/122/349 373/128/354 138/129/129
f 370/124/351 369/125/350 374/131/355 375/130/356
f 371/126/352 370/124/351 375/130/356 376/132/357
f 372/127/353 371/126/352 376/132/357 377/133/358
f 373/128/354 372/127/353 377/133/358 378/134/359
f 138/129/129 373/128/354 378/134/359 144/135/135
f 375/130/356 374/131/355 379/137/360 380/136/361
f 376/132/357 375/130/356 380/136/361 381/138/362
f 377/133/358 376/132/357 381/138/362 382/139/363
f 378/134/359 377/133/358 382/139/363 383/140/364
f 144/135/135 378/134/359 383/140/364 150/141/141
f 380/136/361 379/137/360 384/143/365 385/142/366
f 381/138/362 380/136/361 385/142/366 386/144/367
f 382/139/363 381/138/362 386/144/367 387/145/368
f 383/140/364 382/139/363 387/145/368 388/146/369
f 150/141/141 383/140/364 388/146/369 156/147/147
f 385/142/366 384/143/365 389/5/370 390/148/371
f 386/144/367 385/142/366 390/148/371 391/149/372
f 387/145/368 386/144/367 391/149/372 392/150/373
f 388/146/369 387/145/368 392/150/373 393/151/374
f 156/147/147 388/146/369 393/151/374 162/152/153
f 390/148/371 389/5/370 394/154/375 395/153/376
f 391/149/372 390/148/371 395/153/376 396/155/377
f 392/150/373 391/149/372 396/155/377 397/156/378
f 393/151/374 392/150/373 397/156/378 398/157/379
f 162/152/153 393/151/374 398/157/379 168/158/159
f 395/153/376 394/154/375 399/160/380 400/159/381
f 396/155/377 395/153/376 400/159/381 401/161/382
f 397/156/378 396/155/377 401/161/382 402/162/383
f 398/157/379 397/156/378 402/162/383 403/163/384
f 168/158/159 398/157/379 403/163/384 174/164/165
f 400/159/381 399/160/380 404/166/385 405/165/386
f 401/161/382 400/159/381 405/165/386 406/167/387
f 402/162/383 401/161/382 406/167/387 407/168/388
f 403/163/384 402/162/383 407/168/388 408/169/389
f 174/164/165 403/163/384 408/169/389 180/170/171
f 405/165/386 404/166/385 409/172/390 410/171/391
f 406/167/387 405/165/386 410/171/391 411/173/392
f 407/168/388 406/167/387 411/173/392 412/174/393
f 408/169/389 407/168/388 412/174/393 413/175/394
f 180/170/171 408/169/389 413/175/394 186/176/177
f 410/171/391 409/172/390 414/178/395 415/177/396
f 411/173/392 410/171/391 415/177/396 416/179/397
f 412/174/393 411/173/392 416/179/397 417/180/398
f 413/175/394 412/174/393 417/180/398 418/181/399
f 186/176/177 413/175/394 418/181/399 192/182/183
f 415/177/396 414/178/395 419/184/400 420/183/401
f 416/179/397 415/177/396 420/183/401 421/185/402
f 417/180/398 416/179/397 421/185/402 422/186/403
f 418/181/399 417/180/398 422/186/403 423/187/404
f 192/182/183 418/181/399 423/187/404 198/188/189
f 420/183/401 419/184/400 424/190/405 425/189/406
f 421/185/402 420/183/401 425/189/406 426/191/407
f 422/186/403 421/185/402 426/191/407 427/192/408
f 423/187/404 422/186/403 427/192/408 428/193/409
f 198/188/189 423/187/404 428/193/409 204/194/195
f 425/189/406 424/190/405 429/6/410 430/195/411
f 426/191/407 425/189/406 430/195/411 431/196/412
f 427/192/408 426/191/407 431/196/412 432/197/413
f 428/193/409 427/192/408 432/197/413 433/198/414
f 204/194/195 428/193/409 433/198/414 210/199/201
f 430/195/411 429/6/410 434/201/415 435/200/416
f 431/196/412 430/195/411 435/200/416 436/202/417
f 432/197/413 431/196/412 436/202/417 437/203/418
f 433/198/414 432/197/413 437/203/418 438/204/419
f 210/199/201 433/198/414 438/204/419 216/205/207
f 435/200/416 434/201/415 439/207/420 440/206/421
f 436/202/417 435/200/416 440/206/421 441/208/422
f 437/203/418 436/202/417 441/208/422 442/209/423
f 438/204/419 437/203/418 442/209/423 443/210/424
f 216/205/207 438/204/419 443/210/424 222/211/213
f 440/206/421 439/207/420 444/213/425 445/212/426
f 441/208/422 440/206/421 445/212/426 446/214/427
f 442/209/423 441/208/422 446/214/427 447/215/428
f 443/210/424 442/209/423 447/215/428 448/216/429
f 222/211/213 443/210/424 448/216/429 228/217/219
f 445/212/426 444/213/425 449/219/430 450/218/431
f 446/214/427 445/212/426 450/218/431 451/220/432
f 447/215/428 446/214/427 451/220/432 452/221/433
f 448/216/429 447/215/428 452/221/433 453/222/434
f 228/217/219 448/216/429 453/222/434 234/223/225
f 450/218/431 449/219/430 454/225/435 455/224/436
f 451/220/432 450/218/431 455/224/436 456/226/437
f 452/221/433 451/220/432 456/226/437 457/227/438
f 453/222/434 452/221/433 457/227/438 458/228/439
f 234/223/225 453/222/434 458/228/439 240/229/231
f 455/224/436 454/225/435 459/231/440 460/230/441
f 456/226/437 455/224/436 460/230/441 461/232/442
f 457/227/438 456/226/437 461/232/442 462/233/443
f 458/228/439 457/227/438 462/233/443 463/234/444
f 240/229/231 458/228/439 463/234/444 246/235/237
f 460/230/441 459/231/440 464/237/445 465/236/446
f 461/232/442 460/230/441 465/236/446 466/238/447
f 462/233/443 461/232/442 466/238/447 467/239/448
f 463/234/444 462/233/443 467/239/448 468/240/449
f 246/235/237 463/234/444 468/240/449 252/241/243
f 465/236/446 464/237/445 469/2/450 470/242/451
f 466/238/447 465/236/446 470/242/451 471/243/452
f 467/239/448 466/238/447 471/243/452 472/244/453
f 468/240/449 467/239/448 472/244/453 473/245/454
f 252/241/243 468/240/449 473/245/454 258/246/249
o Cone
v -1.575789 0.622603 -0.000000
v -1.572022 0.618104 0.059572
v -1.560866 0.604782 0.116855
v -1.542750 0.583148 0.169647
v -1.518369 0.554033 0.215920
v -1.488661 0.518556 0.253895
v -1.454767 0.478081 0.282113
v -1.417990 0.434162 0.299490
v -1.379744 0.388489 0.305357
v -1.341497 0.342816 0.299490
v -1.304720 0.298898 0.282113
v -1.270827 0.258423 0.253895
v -1.241119 0.222946 0.215920
v -1.216738 0.193831 0.169647
v -1.198621 0.172196 0.116855
v -1.187465 0.158874 0.059572
v -1.183698 0.154375 -0.000000
v -1.187465 0.158874 -0.059572
v -1.198621 0.172196 -0.116855
v -1.216738 0.193831 -0.169647
v -1.241119 0.222946 -0.215920
v -1.270827 0.258423 -0.253895
v -1.304720 0.298898 -0.282113
v -1.341497 0.342816 -0.299490
v -1.379744 0.388489 -0.305357
v -1.417990 0.434162 -0.299490
v -1.454767 0.478081 -0.282113
v -1.488661 0.518556 -0.253895
v -1.518369 0.554033 -0.215920
v -1.542750 0.583148 -0.169647
v -1.560866 0.604782 -0.116855
v -1.572022 0.618104 -0.059572
v -1.847971 -0.003602 -0.000000
vn -0.1689 0.9856 -0.0000
vn -0.7667 -0.6420 -0.0000
vn -0.1583 0.9729 0.1686
vn -0.1267 0.9352 0.3307
vn -0.0754 0.8740 0.4801
vn -0.0064 0.7916 0.6110
vn 0.0776 0.6912 0.7185
vn 0.1736 0.5767 0.7983
vn 0.2776 0.4524 0.8475
vn 0.3859 0.3231 0.8641
vn 0.4941 0.1939 0.8475
vn 0.5982 0.0696 0.7983
vn 0.6941 -0.0449 0.7185
vn 0.7782 -0.1453 0.6110
vn 0.8471 -0.2277 0.4801
vn 0.8984 -0.2890 0.3307
vn 0.9300 -0.3267 0.1686
vn 0.9406 -0.3394 -0.0000
vn 0.9300 -0.3267 -0.1686
vn 0.8984 -0.2890 -0.3307
vn 0.8471 -0.2277 -0.4801
vn 0.7782 -0.1453 -0.6110
vn 0.6941 -0.0449 -0.7185
vn 0.5982 0.0696 -0.7983
vn 0.4941 0.1939 -0.8475
vn 0.3859 0.3231 -0.8641
vn 0.2776 0.4524 -0.8475
vn 0.1736 0.5767 -0.7983
vn 0.0776 0.6912 -0.7185
vn -0.0064 0.7916 -0.6110
vn -0.0754 0.8740 -0.4801
vn -0.1267 0.9352 -0.3307
vn -0.1583 0.9729 -0.1686
vt 0.250000 0.490000
vt 0.250000 0.250000
vt 0.296822 0.485388
vt 0.341844 0.471731
vt 0.383337 0.449553
vt 0.419706 0.419706
vt 0.449553 0.383337
vt 0.471731 0.341844
vt 0.485388 0.296822
vt 0.490000 0.250000
vt 0.485388 0.203178
vt 0.471731 0.158156
vt 0.449553 0.116663
vt 0.419706 0.080294
vt 0.383337 0.050447
vt 0.341844 0.028269
vt 0.296822 0.014612
vt 0.250000 0.010000
vt 0.203178 0.014612
vt 0.158156 0.028269
vt 0.116663 0.050447
vt 0.080294 0.080294
vt 0.050447 0.116663
vt 0.028269 0.158156
vt 0.014612 0.203178
vt 0.010000 0.250000
vt 0.014612 0.296822
vt 0.028269 0.341844
vt 0.050447 0.383337
vt 0.080294 0.419706
vt 0.116663 0.449553
vt 0.158156 0.471731
vt 0.750000 0.490000
vt 0.796822 0.485388
vt 0.841844 0.471731
vt 0.883337 0.449553
vt 0.919706 0.419706
vt 0.949553 0.383337
vt 0.971731 0.341844
vt 0.985388 0.296822
vt 0.990000 0.250000
vt 0.985388 0.203178
vt 0.971731 0.158156
vt 0.949553 0.116663
vt 0.919706 0.080294
vt 0.883337 0.050447
vt 0.841844 0.028269
vt 0.796822 0.014612
vt 0.750000 0.010000
vt 0.703178 0.014612
vt 0.658156 0.028269
vt 0.616663 0.050447
vt 0.580294 0.080294
vt 0.550447 0.116663
vt 0.528269 0.158156
vt 0.514612 0.203178
vt 0.510000 0.250000
vt 0.514612 0.296822
vt 0.528269 0.341844
vt 0.550447 0.383337
vt 0.580294 0.419706
vt 0.616663 0.449553
vt 0.658156 0.471731
vt 0.703178 0.485388
vt 0.203178 0.485388
s 1
usemtl Material
f 474/247/455 506/248/456 475/249/457
f 475/249/457 506/248/456 476/250/458
f 476/250/458 506/248/456 477/251/459
f 477/251/459 506/248/456 478/252/460
f 478/252/460 506/248/456 479/253/461
f 479/253/461 506/248/456 480/254/462
f 480/254/462 506/248/456 481/255/463
f 481/255/463 506/248/456 482/256/464
f 482/256/464 506/248/456 483/257/465
f 483/257/465 506/248/456 484/258/466
f 484/258/466 506/248/456 485/259/467
f 485/259/467 506/248/456 486/260/468
f 486/260/468 506/248/456 487/261/469
f 487/261/469 506/248/456 488/262/470
f 488/262/470 506/248/456 489/263/471
f 489/263/471 506/248/456 490/264/472
f 490/264/472 506/248/456 491/265/473
f 491/265/473 506/248/456 492/266/474
f 492/266/474 506/248/456 493/267/475
f 493/267/475 506/248/456 494/268/476
f 494/268/476 506/248/456 495/269/477
f 495/269/477 506/248/456 496/270/478
f 496/270/478 506/248/456 497/271/479
f 497/271/479 506/248/456 498/272/480
f 498/272/480 506/248/456 499/273/481
f 499/273/481 506/248/456 500/274/482
f 500/274/482 506/248/456 501/275/483
f 501/275/483 506/248/456 502/276/484
f 502/276/484 506/248/456 503/277/485
f 503/277/485 506/248/456 504/278/486
f 474/279/455 475/280/457 476/281/458 477/282/459 478/283/460 479/284/461 480/285/462 481/286/463 482/287/464 483/288/465 484/289/466 485/290/467 486/291/468 487/292/469 488/293/470 489/294/471 490/295/472 491/296/473 492/297/474 493/298/475 494/299/476 495/300/477 496/301/478 497/302/479 498/303/480 499/304/481 500/305/482 501/306/483 502/307/484 503/308/485 504/309/486 505/310/487
f 504/278/486 506/248/456 505/311/487
f 505/311/487 506/248/456 474/247/455
