<?xml version="1.0" encoding="utf-8"?>
<COLLADA xmlns="http://www.collada.org/2005/11/COLLADASchema" version="1.4.1" xmlns:xsi="http://www.w3.org/2001/XMLSchema-instance">
  <asset>
    <contributor>
      <author>Blender User</author>
      <authoring_tool>Blender 3.6.1 commit date:2023-07-17, commit time:12:50, hash:8bda729ef4dc</authoring_tool>
    </contributor>
    <created>2025-05-30T15:52:29</created>
    <modified>2025-05-30T15:52:29</modified>
    <unit name="meter" meter="1"/>
    <up_axis>Z_UP</up_axis>
  </asset>
  <library_effects>
    <effect id="Material_002-effect">
      <profile_COMMON>
        <technique sid="common">
          <lambert>
            <emission>
              <color sid="emission">0 0 0 1</color>
            </emission>
            <diffuse>
              <color sid="diffuse">0.8000001 8.32117e-4 0 1</color>
            </diffuse>
            <reflectivity>
              <float sid="specular">0.5</float>
            </reflectivity>
          </lambert>
        </technique>
      </profile_COMMON>
    </effect>
    <effect id="Material_001-effect">
      <profile_COMMON>
        <technique sid="common">
          <lambert>
            <emission>
              <color sid="emission">0 0 0 1</color>
            </emission>
            <diffuse>
              <color sid="diffuse">0.047012 0.8 0.093016 1</color>
            </diffuse>
            <index_of_refraction>
              <float sid="ior">1.45</float>
            </index_of_refraction>
          </lambert>
        </technique>
      </profile_COMMON>
    </effect>
    <effect id="Material_003-effect">
      <profile_COMMON>
        <technique sid="common">
          <lambert>
            <emission>
              <color sid="emission">0 0 0 1</color>
            </emission>
            <diffuse>
              <color sid="diffuse">1 1 1 1</color>
            </diffuse>
          </lambert>
        </technique>
      </profile_COMMON>
    </effect>
  </library_effects>
  <library_images/>
  <library_materials>
    <material id="Material_002-material" name="Material.002">
      <instance_effect url="#Material_002-effect"/>
    </material>
    <material id="Material_001-material" name="Material.001">
      <instance_effect url="#Material_001-effect"/>
    </material>
    <material id="Material_003-material" name="Material.003">
      <instance_effect url="#Material_003-effect"/>
    </material>
  </library_materials>
  <library_geometries>
    <geometry id="Plane_001-mesh" name="Plane.001">
      <mesh>
        <source id="Plane_001-mesh-positions">
          <float_array id="Plane_001-mesh-positions-array" count="9">0 1.259111 5.565865 0 1.624873 5.200102 0 1.259111 5.200102</float_array>
          <technique_common>
            <accessor source="#Plane_001-mesh-positions-array" count="3" stride="3">
              <param name="X" type="float"/>
              <param name="Y" type="float"/>
              <param name="Z" type="float"/>
            </accessor>
          </technique_common>
        </source>
        <source id="Plane_001-mesh-normals">
          <float_array id="Plane_001-mesh-normals-array" count="3">-1 0 0</float_array>
          <technique_common>
            <accessor source="#Plane_001-mesh-normals-array" count="1" stride="3">
              <param name="X" type="float"/>
              <param name="Y" type="float"/>
              <param name="Z" type="float"/>
            </accessor>
          </technique_common>
        </source>
        <source id="Plane_001-mesh-map-0">
          <float_array id="Plane_001-mesh-map-0-array" count="6">0 0 0 0 0 0</float_array>
          <technique_common>
            <accessor source="#Plane_001-mesh-map-0-array" count="3" stride="2">
              <param name="S" type="float"/>
              <param name="T" type="float"/>
            </accessor>
          </technique_common>
        </source>
        <vertices id="Plane_001-mesh-vertices">
          <input semantic="POSITION" source="#Plane_001-mesh-positions"/>
        </vertices>
        <triangles material="Material_002-material" count="1">
          <input semantic="VERTEX" source="#Plane_001-mesh-vertices" offset="0"/>
          <input semantic="NORMAL" source="#Plane_001-mesh-normals" offset="1"/>
          <input semantic="TEXCOORD" source="#Plane_001-mesh-map-0" offset="2" set="0"/>
          <p>1 0 0 2 0 1 0 0 2</p>
        </triangles>
      </mesh>
    </geometry>
    <geometry id="Plane-mesh" name="Plane">
      <mesh>
        <source id="Plane-mesh-positions">
          <float_array id="Plane-mesh-positions-array" count="36">-3 0 8 3 0 8 -3 0 -8 3 0 -8 -0.379297 0 4.755616 -0.379297 0 5.618828 0.379297 0 5.618828 0.379297 0 4.755616 -0.379297 -0.740401 4.755616 -0.379297 -0.740401 5.618828 0.379297 -0.740401 5.618828 0.379297 -0.740401 4.755616</float_array>
          <technique_common>
            <accessor source="#Plane-mesh-positions-array" count="12" stride="3">
              <param name="X" type="float"/>
              <param name="Y" type="float"/>
              <param name="Z" type="float"/>
            </accessor>
          </technique_common>
        </source>
        <source id="Plane-mesh-normals">
          <float_array id="Plane-mesh-normals-array" count="15">0 0 1 0 1 0 0 0 -1 -1 0 0 1 0 0</float_array>
          <technique_common>
            <accessor source="#Plane-mesh-normals-array" count="5" stride="3">
              <param name="X" type="float"/>
              <param name="Y" type="float"/>
              <param name="Z" type="float"/>
            </accessor>
          </technique_common>
        </source>
        <source id="Plane-mesh-map-0">
          <float_array id="Plane-mesh-map-0-array" count="108">0.344862 0.655138 0.655138 0.655138 0.655138 0.655138 0.344862 0.655138 0 0 0.344862 0.344862 0.344862 0.344862 1 0 0.655138 0.344862 0.655138 0.655138 1 0 1 1 0.655138 0.655138 0 1 0.344862 0.655138 0.655138 0.344862 0.344862 0.655138 0.344862 0.344862 0.655138 0.344862 0.344862 0.344862 0.344862 0.344862 0.655138 0.655138 0.655138 0.344862 0.655138 0.344862 0.344862 0.344862 0.344862 0.655138 0.344862 0.655138 0.344862 0.655138 0.344862 0.655138 0.655138 0.655138 0.344862 0.655138 0 1 0 0 0.344862 0.344862 0 0 1 0 0.655138 0.655138 0.655138 0.344862 1 0 0.655138 0.655138 1 1 0 1 0.655138 0.344862 0.655138 0.655138 0.344862 0.655138 0.655138 0.344862 0.655138 0.344862 0.344862 0.344862 0.655138 0.655138 0.655138 0.655138 0.655138 0.344862 0.344862 0.344862 0.344862 0.344862 0.344862 0.655138</float_array>
          <technique_common>
            <accessor source="#Plane-mesh-map-0-array" count="54" stride="2">
              <param name="S" type="float"/>
              <param name="T" type="float"/>
            </accessor>
          </technique_common>
        </source>
        <vertices id="Plane-mesh-vertices">
          <input semantic="POSITION" source="#Plane-mesh-positions"/>
        </vertices>
        <triangles material="Material_001-material" count="18">
          <input semantic="VERTEX" source="#Plane-mesh-vertices" offset="0"/>
          <input semantic="NORMAL" source="#Plane-mesh-normals" offset="1"/>
          <input semantic="TEXCOORD" source="#Plane-mesh-map-0" offset="2" set="0"/>
          <p>4 0 0 11 0 1 7 0 2 4 1 3 0 1 4 5 1 5 5 1 6 1 1 7 6 1 8 7 1 9 1 1 10 3 1 11 7 1 12 2 1 13 4 1 14 10 1 15 8 1 16 9 1 17 6 2 18 9 2 19 5 2 20 7 3 21 10 3 22 6 3 23 5 4 24 8 4 25 4 4 26 4 0 27 8 0 28 11 0 29 4 1 30 2 1 31 0 1 32 5 1 33 0 1 34 1 1 35 7 1 36 6 1 37 1 1 38 7 1 39 3 1 40 2 1 41 10 1 42 11 1 43 8 1 44 6 2 45 10 2 46 9 2 47 7 3 48 11 3 49 10 3 50 5 4 51 9 4 52 8 4 53</p>
        </triangles>
      </mesh>
    </geometry>
    <geometry id="Cylinder-mesh" name="Cylinder">
      <mesh>
        <source id="Cylinder-mesh-positions">
          <float_array id="Cylinder-mesh-positions-array" count="192">0 -0.759945 5.134846 0 1.623974 5.134846 0.008760988 -0.759945 5.135709 0.008760988 1.623974 5.135709 0.01718497 -0.759945 5.138264 0.01718497 1.623974 5.138264 0.024948 -0.759945 5.142414 0.024948 1.623974 5.142414 0.031753 -0.759945 5.147999 0.031753 1.623974 5.147999 0.03733795 -0.759945 5.154804 0.03733795 1.623974 5.154804 0.04148799 -0.759945 5.162567 0.04148799 1.623974 5.162567 0.044043 -0.759945 5.170991 0.044043 1.623974 5.170991 0.04490596 -0.759945 5.179752 0.04490596 1.623974 5.179752 0.044043 -0.759945 5.188513 0.044043 1.623974 5.188513 0.04148799 -0.759945 5.196937 0.04148799 1.623974 5.196937 0.03733795 -0.759945 5.2047 0.03733795 1.623974 5.2047 0.031753 -0.759945 5.211505 0.031753 1.623974 5.211505 0.024948 -0.759945 5.21709 0.024948 1.623974 5.21709 0.01718497 -0.759945 5.22124 0.01718497 1.623974 5.22124 0.008760988 -0.759945 5.223795 0.008760988 1.623974 5.223795 0 -0.759945 5.224658 0 1.623974 5.224658 -0.008760988 -0.759945 5.223795 -0.008760988 1.623974 5.223795 -0.01718497 -0.759945 5.22124 -0.01718497 1.623974 5.22124 -0.024948 -0.759945 5.21709 -0.024948 1.623974 5.21709 -0.031753 -0.759945 5.211505 -0.031753 1.623974 5.211505 -0.03733795 -0.759945 5.2047 -0.03733795 1.623974 5.2047 -0.04148799 -0.759945 5.196937 -0.04148799 1.623974 5.196937 -0.044043 -0.759945 5.188513 -0.044043 1.623974 5.188513 -0.04490596 -0.759945 5.179752 -0.04490596 1.623974 5.179752 -0.044043 -0.759945 5.170991 -0.044043 1.623974 5.170991 -0.04148799 -0.759945 5.162567 -0.04148799 1.623974 5.162567 -0.03733795 -0.759945 5.154804 -0.03733795 1.623974 5.154804 -0.031753 -0.759945 5.147999 -0.031753 1.623974 5.147999 -0.024948 -0.759945 5.142414 -0.024948 1.623974 5.142414 -0.01718497 -0.759945 5.138264 -0.01718497 1.623974 5.138264 -0.008760988 -0.759945 5.135709 -0.008760988 1.623974 5.135709</float_array>
          <technique_common>
            <accessor source="#Cylinder-mesh-positions-array" count="64" stride="3">
              <param name="X" type="float"/>
              <param name="Y" type="float"/>
              <param name="Z" type="float"/>
            </accessor>
          </technique_common>
        </source>
        <source id="Cylinder-mesh-normals">
          <float_array id="Cylinder-mesh-normals-array" count="276">0.09806364 0 -0.9951801 0.2903776 0 -0.9569122 0.4713839 0 -0.8819282 0.634387 0 -0.7730157 0.7730205 0 -0.6343811 0.8818801 0 -0.4714739 0.9569464 0 -0.2902647 0.9951826 0 -0.09803944 0.9951834 0 0.09803056 0.9569541 0 0.2902395 0.8818801 0 0.4714739 0.7729839 0 0.6344256 0.6344413 0 0.7729711 0.4713839 0 0.8819282 0.2902944 0 0.9569374 0.09806364 0 0.9951801 -0.09797364 0 0.9951891 -0.2902112 0 0.9569627 -0.4714546 0 0.8818904 -0.6344413 0 0.7729711 -0.7729839 0 0.6344256 -0.8819003 0 0.4714362 -0.9569541 0 0.2902395 -0.9951834 0 0.09803056 -0.9951844 0 -0.09802168 -0.9569541 0 -0.2902395 -0.8819003 0 -0.4714362 -0.7730205 0 -0.6343811 -0.634387 0 -0.7730157 -0.4715253 0 -0.8818526 0 1 -1.84734e-6 -0.2902112 0 -0.9569627 -0.09788358 0 -0.9951979 0 -1 -1.30628e-6 0.09788358 0 -0.9951979 0.2902112 0 -0.9569627 0.4715253 0 -0.8818526 0.634387 0 -0.7730157 0.8819002 0 -0.4714362 0.9569541 0 -0.2902395 0.9951844 0 -0.09802168 0.9569541 0 0.2902395 0.8819002 0 0.4714362 0.6344413 0 0.772971 0.4714546 0 0.8818904 0.2902112 0 0.9569627 0.09797364 0 0.9951891 -0.09806364 0 0.9951801 -0.2902944 0 0.9569374 -0.4713839 0 0.8819282 -0.6344413 0 0.772971 -0.8818801 0 0.4714739 -0.9569541 0 0.2902395 -0.9951826 0 -0.09803944 -0.9569464 0 -0.2902647 -0.8818801 0 -0.4714739 -0.634387 0 -0.7730157 -0.4713839 0 -0.8819282 0 1 1.23182e-4 0 1 -1.2324e-4 0 1 6.16224e-5 0 1 -3.08089e-5 0 1 2.07999e-5 0 1 0 0 1 -1.23229e-4 0 1 1.23209e-4 0 1 -1.23249e-4 0 1 -6.16143e-5 0 1 -6.16179e-5 0 1 1.23245e-4 0 1 -1.20529e-5 0 1 1.20527e-5 0 1 1.84734e-6 -0.2903776 0 -0.9569122 -0.09806364 0 -0.9951801 0 -1 0 0 -1 -4.15935e-5 0 -1 6.15891e-5 0 -1 -6.15945e-5 0 -1 -4.61826e-5 0 -1 6.1569e-5 0 -1 -6.1574e-5 0 -1 4.61768e-5 0 -1 -6.15768e-5 0 -1 7.92768e-6 0 -1 -6.02589e-6 0 -1 5.56757e-6 0 -1 1.58549e-5 0 -1 6.53146e-7 0 -1 -1.84737e-6 0 -1 4.45997e-6 0 -1 3.69478e-6</float_array>
          <technique_common>
            <accessor source="#Cylinder-mesh-normals-array" count="92" stride="3">
              <param name="X" type="float"/>
              <param name="Y" type="float"/>
              <param name="Z" type="float"/>
            </accessor>
          </technique_common>
        </source>
        <source id="Cylinder-mesh-map-0">
          <float_array id="Cylinder-mesh-map-0-array" count="744">1 1 0.96875 0.5 1 0.5 0.96875 1 0.9375 0.5 0.96875 0.5 0.9375 1 0.90625 0.5 0.9375 0.5 0.90625 1 0.875 0.5 0.90625 0.5 0.875 1 0.84375 0.5 0.875 0.5 0.84375 1 0.8125 0.5 0.84375 0.5 0.8125 1 0.78125 0.5 0.8125 0.5 0.78125 1 0.75 0.5 0.78125 0.5 0.75 1 0.71875 0.5 0.75 0.5 0.71875 1 0.6875 0.5 0.71875 0.5 0.6875 1 0.65625 0.5 0.6875 0.5 0.65625 1 0.625 0.5 0.65625 0.5 0.625 1 0.59375 0.5 0.625 0.5 0.59375 1 0.5625 0.5 0.59375 0.5 0.5625 1 0.53125 0.5 0.5625 0.5 0.53125 1 0.5 0.5 0.53125 0.5 0.5 1 0.46875 0.5 0.5 0.5 0.46875 1 0.4375 0.5 0.46875 0.5 0.4375 1 0.40625 0.5 0.4375 0.5 0.40625 1 0.375 0.5 0.40625 0.5 0.375 1 0.34375 0.5 0.375 0.5 0.34375 1 0.3125 0.5 0.34375 0.5 0.3125 1 0.28125 0.5 0.3125 0.5 0.28125 1 0.25 0.5 0.28125 0.5 0.25 1 0.21875 0.5 0.25 0.5 0.21875 1 0.1875 0.5 0.21875 0.5 0.1875 1 0.15625 0.5 0.1875 0.5 0.15625 1 0.125 0.5 0.15625 0.5 0.125 1 0.09375 0.5 0.125 0.5 0.09375 1 0.0625 0.5 0.09375 0.5 0.158156 0.02826899 0.471731 0.158156 0.341844 0.471731 0.0625 1 0.03125 0.5 0.0625 0.5 0.03125 1 0 0.5 0.03125 0.5 0.550447 0.383337 0.703178 0.485388 0.796822 0.01461195 1 1 0.96875 1 0.96875 0.5 0.96875 1 0.9375 1 0.9375 0.5 0.9375 1 0.90625 1 0.90625 0.5 0.90625 1 0.875 1 0.875 0.5 0.875 1 0.84375 1 0.84375 0.5 0.84375 1 0.8125 1 0.8125 0.5 0.8125 1 0.78125 1 0.78125 0.5 0.78125 1 0.75 1 0.75 0.5 0.75 1 0.71875 1 0.71875 0.5 0.71875 1 0.6875 1 0.6875 0.5 0.6875 1 0.65625 1 0.65625 0.5 0.65625 1 0.625 1 0.625 0.5 0.625 1 0.59375 1 0.59375 0.5 0.59375 1 0.5625 1 0.5625 0.5 0.5625 1 0.53125 1 0.53125 0.5 0.53125 1 0.5 1 0.5 0.5 0.5 1 0.46875 1 0.46875 0.5 0.46875 1 0.4375 1 0.4375 0.5 0.4375 1 0.40625 1 0.40625 0.5 0.40625 1 0.375 1 0.375 0.5 0.375 1 0.34375 1 0.34375 0.5 0.34375 1 0.3125 1 0.3125 0.5 0.3125 1 0.28125 1 0.28125 0.5 0.28125 1 0.25 1 0.25 0.5 0.25 1 0.21875 1 0.21875 0.5 0.21875 1 0.1875 1 0.1875 0.5 0.1875 1 0.15625 1 0.15625 0.5 0.15625 1 0.125 1 0.125 0.5 0.125 1 0.09375 1 0.09375 0.5 0.09375 1 0.0625 1 0.0625 0.5 0.341844 0.471731 0.296822 0.485388 0.25 0.49 0.25 0.49 0.203178 0.485388 0.158156 0.471731 0.158156 0.471731 0.116663 0.449553 0.08029395 0.419706 0.08029395 0.419706 0.05044698 0.383337 0.02826899 0.341844 0.02826899 0.341844 0.01461195 0.296822 0.00999999 0.25 0.00999999 0.25 0.01461195 0.203178 0.02826899 0.341844 0.01461195 0.203178 0.02826899 0.158156 0.02826899 0.341844 0.02826899 0.158156 0.05044698 0.116663 0.08029395 0.08029395 0.08029395 0.08029395 0.116663 0.05044698 0.158156 0.02826899 0.158156 0.02826899 0.203178 0.01461195 0.25 0.00999999 0.25 0.00999999 0.296822 0.01461195 0.158156 0.02826899 0.296822 0.01461195 0.341844 0.02826899 0.158156 0.02826899 0.341844 0.02826899 0.383337 0.05044698 0.419706 0.08029395 0.419706 0.08029395 0.449553 0.116663 0.471731 0.158156 0.471731 0.158156 0.485388 0.203178 0.471731 0.341844 0.485388 0.203178 0.49 0.25 0.471731 0.341844 0.49 0.25 0.485388 0.296822 0.471731 0.341844 0.471731 0.341844 0.449553 0.383337 0.419706 0.419706 0.419706 0.419706 0.383337 0.449553 0.341844 0.471731 0.341844 0.471731 0.25 0.49 0.158156 0.471731 0.158156 0.471731 0.08029395 0.419706 0.341844 0.471731 0.08029395 0.419706 0.02826899 0.341844 0.341844 0.471731 0.02826899 0.158156 0.08029395 0.08029395 0.02826899 0.341844 0.08029395 0.08029395 0.158156 0.02826899 0.02826899 0.341844 0.341844 0.02826899 0.419706 0.08029395 0.158156 0.02826899 0.419706 0.08029395 0.471731 0.158156 0.158156 0.02826899 0.471731 0.341844 0.419706 0.419706 0.471731 0.158156 0.419706 0.419706 0.341844 0.471731 0.471731 0.158156 0.341844 0.471731 0.02826899 0.341844 0.158156 0.02826899 0.0625 1 0.03125 1 0.03125 0.5 0.03125 1 0 1 0 0.5 0.703178 0.485388 0.75 0.49 0.883337 0.449553 0.75 0.49 0.796822 0.485388 0.883337 0.449553 0.796822 0.485388 0.841844 0.471731 0.883337 0.449553 0.883337 0.449553 0.919706 0.419706 0.949553 0.383337 0.949553 0.383337 0.971731 0.341844 0.985388 0.296822 0.985388 0.296822 0.99 0.25 0.985388 0.203178 0.985388 0.203178 0.971731 0.158156 0.949553 0.116663 0.949553 0.116663 0.919706 0.08029395 0.796822 0.01461195 0.919706 0.08029395 0.883337 0.05044698 0.796822 0.01461195 0.883337 0.05044698 0.841844 0.02826899 0.796822 0.01461195 0.796822 0.01461195 0.75 0.00999999 0.703178 0.01461195 0.703178 0.01461195 0.658156 0.02826899 0.616663 0.05044698 0.616663 0.05044698 0.580294 0.08029395 0.514612 0.203178 0.580294 0.08029395 0.550447 0.116663 0.514612 0.203178 0.550447 0.116663 0.528269 0.158156 0.514612 0.203178 0.514612 0.203178 0.51 0.25 0.514612 0.296822 0.514612 0.296822 0.528269 0.341844 0.550447 0.383337 0.550447 0.383337 0.580294 0.419706 0.616663 0.449553 0.616663 0.449553 0.658156 0.471731 0.703178 0.485388 0.883337 0.449553 0.949553 0.383337 0.985388 0.296822 0.985388 0.296822 0.985388 0.203178 0.949553 0.116663 0.796822 0.01461195 0.703178 0.01461195 0.514612 0.203178 0.703178 0.01461195 0.616663 0.05044698 0.514612 0.203178 0.514612 0.203178 0.514612 0.296822 0.550447 0.383337 0.550447 0.383337 0.616663 0.449553 0.703178 0.485388 0.703178 0.485388 0.883337 0.449553 0.796822 0.01461195 0.883337 0.449553 0.985388 0.296822 0.796822 0.01461195 0.985388 0.296822 0.949553 0.116663 0.796822 0.01461195 0.514612 0.203178 0.550447 0.383337 0.796822 0.01461195</float_array>
          <technique_common>
            <accessor source="#Cylinder-mesh-map-0-array" count="372" stride="2">
              <param name="S" type="float"/>
              <param name="T" type="float"/>
            </accessor>
          </technique_common>
        </source>
        <vertices id="Cylinder-mesh-vertices">
          <input semantic="POSITION" source="#Cylinder-mesh-positions"/>
        </vertices>
        <triangles material="Material_003-material" count="124">
          <input semantic="VERTEX" source="#Cylinder-mesh-vertices" offset="0"/>
          <input semantic="NORMAL" source="#Cylinder-mesh-normals" offset="1"/>
          <input semantic="TEXCOORD" source="#Cylinder-mesh-map-0" offset="2" set="0"/>
          <p>1 0 0 2 0 1 0 0 2 3 1 3 4 1 4 2 1 5 5 2 6 6 2 7 4 2 8 7 3 9 8 3 10 6 3 11 9 4 12 10 4 13 8 4 14 11 5 15 12 5 16 10 5 17 13 6 18 14 6 19 12 6 20 15 7 21 16 7 22 14 7 23 17 8 24 18 8 25 16 8 26 19 9 27 20 9 28 18 9 29 21 10 30 22 10 31 20 10 32 23 11 33 24 11 34 22 11 35 25 12 36 26 12 37 24 12 38 27 13 39 28 13 40 26 13 41 29 14 42 30 14 43 28 14 44 31 15 45 32 15 46 30 15 47 33 16 48 34 16 49 32 16 50 35 17 51 36 17 52 34 17 53 37 18 54 38 18 55 36 18 56 39 19 57 40 19 58 38 19 59 41 20 60 42 20 61 40 20 62 43 21 63 44 21 64 42 21 65 45 22 66 46 22 67 44 22 68 47 23 69 48 23 70 46 23 71 49 24 72 50 24 73 48 24 74 51 25 75 52 25 76 50 25 77 53 26 78 54 26 79 52 26 80 55 27 81 56 27 82 54 27 83 57 28 84 58 28 85 56 28 86 59 29 87 60 29 88 58 29 89 37 30 90 21 30 91 5 30 92 61 31 93 62 31 94 60 31 95 63 32 96 0 32 97 62 32 98 54 33 99 62 33 100 30 33 101 1 34 102 3 34 103 2 34 104 3 35 105 5 35 106 4 35 107 5 36 108 7 36 109 6 36 110 7 37 111 9 37 112 8 37 113 9 4 114 11 4 115 10 4 116 11 38 117 13 38 118 12 38 119 13 39 120 15 39 121 14 39 122 15 40 123 17 40 124 16 40 125 17 8 126 19 8 127 18 8 128 19 41 129 21 41 130 20 41 131 21 42 132 23 42 133 22 42 134 23 11 135 25 11 136 24 11 137 25 43 138 27 43 139 26 43 140 27 44 141 29 44 142 28 44 143 29 45 144 31 45 145 30 45 146 31 46 147 33 46 148 32 46 149 33 47 150 35 47 151 34 47 152 35 48 153 37 48 154 36 48 155 37 49 156 39 49 157 38 49 158 39 50 159 41 50 160 40 50 161 41 20 162 43 20 163 42 20 164 43 51 165 45 51 166 44 51 167 45 52 168 47 52 169 46 52 170 47 23 171 49 23 172 48 23 173 49 53 174 51 53 175 50 53 176 51 54 177 53 54 178 52 54 179 53 55 180 55 55 181 54 55 182 55 27 183 57 27 184 56 27 185 57 56 186 59 56 187 58 56 188 59 57 189 61 57 190 60 57 191 5 58 192 3 58 193 1 58 194 1 58 195 63 58 196 61 58 197 61 59 198 59 59 199 57 59 200 57 60 201 55 60 202 53 60 203 53 61 204 51 61 205 49 61 206 49 62 207 47 62 208 53 62 209 47 63 210 45 63 211 53 63 212 45 64 213 43 64 214 41 64 215 41 65 216 39 65 217 37 65 218 37 66 219 35 66 220 33 66 221 33 63 222 31 63 223 37 63 224 31 63 225 29 63 226 37 63 227 29 65 228 27 65 229 25 65 230 25 67 231 23 67 232 21 67 233 21 63 234 19 63 235 13 63 236 19 63 237 17 63 238 13 63 239 17 68 240 15 68 241 13 68 242 13 69 243 11 69 244 9 69 245 9 59 246 7 59 247 5 59 248 5 63 249 1 63 250 61 63 251 61 63 252 57 63 253 5 63 254 57 63 255 53 63 256 5 63 257 45 63 258 41 63 259 53 63 260 41 70 261 37 70 262 53 70 263 29 63 264 25 63 265 37 63 266 25 63 267 21 63 268 37 63 269 13 63 270 9 63 271 21 63 272 9 71 273 5 71 274 21 71 275 5 72 276 53 72 277 37 72 278 61 73 279 63 73 280 62 73 281 63 74 282 1 74 283 0 74 284 62 75 285 0 75 286 6 75 287 0 76 288 2 76 289 6 76 290 2 77 291 4 77 292 6 77 293 6 78 294 8 78 295 10 78 296 10 79 297 12 79 298 14 79 299 14 75 300 16 75 301 18 75 302 18 80 303 20 80 304 22 80 305 22 75 306 24 75 307 30 75 308 24 75 309 26 75 310 30 75 311 26 81 312 28 81 313 30 81 314 30 75 315 32 75 316 34 75 317 34 81 318 36 81 319 38 81 320 38 75 321 40 75 322 46 75 323 40 75 324 42 75 325 46 75 326 42 82 327 44 82 328 46 82 329 46 75 330 48 75 331 50 75 332 50 83 333 52 83 334 54 83 335 54 78 336 56 78 337 58 78 338 58 77 339 60 77 340 62 77 341 6 84 342 10 84 343 14 84 344 14 75 345 18 75 346 22 75 347 30 85 348 34 85 349 46 85 350 34 86 351 38 86 352 46 86 353 46 75 354 50 75 355 54 75 356 54 87 357 58 87 358 62 87 359 62 88 360 6 88 361 30 88 362 6 89 363 14 89 364 30 89 365 14 90 366 22 90 367 30 90 368 46 91 369 54 91 370 30 91 371</p>
        </triangles>
      </mesh>
    </geometry>
  </library_geometries>
  <library_visual_scenes>
    <visual_scene id="Scene" name="Scene">
      <node id="Plane_001" name="Plane.001" type="NODE">
        <matrix sid="transform">-4.37114e-8 7.54979e-8 -1 0 -1 -3.30012e-15 4.37114e-8 0 0 1 7.54979e-8 0 0 0 0 1</matrix>
        <instance_geometry url="#Plane_001-mesh" name="Plane.001">
          <bind_material>
            <technique_common>
              <instance_material symbol="Material_002-material" target="#Material_002-material">
                <bind_vertex_input semantic="UVMap" input_semantic="TEXCOORD" input_set="0"/>
              </instance_material>
            </technique_common>
          </bind_material>
        </instance_geometry>
      </node>
      <node id="Plane" name="Plane" type="NODE">
        <matrix sid="transform">-4.37114e-8 7.54979e-8 -1 0 -1 -3.30012e-15 4.37114e-8 0 0 1 7.54979e-8 0 0 0 0 1</matrix>
        <instance_geometry url="#Plane-mesh" name="Plane">
          <bind_material>
            <technique_common>
              <instance_material symbol="Material_001-material" target="#Material_001-material">
                <bind_vertex_input semantic="UVMap" input_semantic="TEXCOORD" input_set="0"/>
              </instance_material>
            </technique_common>
          </bind_material>
        </instance_geometry>
      </node>
      <node id="Cylinder" name="Cylinder" type="NODE">
        <matrix sid="transform">-4.37114e-8 7.54979e-8 -1 0 -1 -3.30012e-15 4.37114e-8 0 0 1 7.54979e-8 0 0 0 0 1</matrix>
        <instance_geometry url="#Cylinder-mesh" name="Cylinder">
          <bind_material>
            <technique_common>
              <instance_material symbol="Material_003-material" target="#Material_003-material">
                <bind_vertex_input semantic="UVMap" input_semantic="TEXCOORD" input_set="0"/>
              </instance_material>
            </technique_common>
          </bind_material>
        </instance_geometry>
      </node>
    </visual_scene>
  </library_visual_scenes>
  <scene>
    <instance_visual_scene url="#Scene"/>
  </scene>
</COLLADA>